<?xml version="1.0" standalone="no"?>
<!DOCTYPE svg PUBLIC "-//W3C//DTD SVG 1.1//EN" "http://www.w3.org/Graphics/SVG/1.1/DTD/svg11.dtd" >
<svg xmlns="http://www.w3.org/2000/svg" xmlns:xlink="http://www.w3.org/1999/xlink" version="1.1">
<metadata></metadata>
<defs>
<font id="sentinellight" horiz-adv-x="749" >
<font-face units-per-em="2048" ascent="1638" descent="-410" />
<missing-glyph horiz-adv-x="356" />
<glyph unicode="&#xfb01;" horiz-adv-x="1148" d="M41 825v82h188v72q0 97 20.5 173t56 125.5t87.5 82t111.5 46t130.5 13.5q127 0 211 -59t84 -148q0 -53 -30 -81.5t-69 -28.5q-42 0 -68 25t-26 63q0 62 54 94q-53 66 -162 66q-137 0 -203 -82t-66 -283v-78h576v-825h176v-82h-448v82h141v743h-445v-743h160v-82h-446v82 h155v743h-188z" />
<glyph unicode="&#xfb02;" horiz-adv-x="1159" d="M41 825v82h188v72q0 120 29.5 208t81.5 137t114.5 72t137.5 23q127 0 207 -53l147 47v-1331h176v-82h-442v82h135v743h-455v-743h177v-82h-463v82h155v743h-188zM360 907h455v228q-17 -7 -35 -7q-44 0 -69 26t-25 65q0 31 16.5 54t30.5 30q-61 47 -143 47 q-121 0 -175.5 -82.5t-54.5 -282.5v-78z" />
<glyph unicode="&#xfb03;" horiz-adv-x="1720" d="M41 825v82h188v72q0 120 29.5 208t82.5 137t117 72t142 23q104 0 179 -38t95 -107q103 145 332 145q127 0 211 -59t84 -148q0 -53 -29.5 -81.5t-68.5 -28.5q-42 0 -68 25t-26 63q0 63 53 94q-53 66 -162 66q-137 0 -202.5 -82t-65.5 -283v-78h575v-825h176v-82h-448v82 h141v743h-444v-743h160v-82h-426v82h135v743h-441v-743h177v-82h-463v82h155v743h-188zM360 907h441v72q0 86 14 149q-10 -4 -29 -4q-44 0 -71 26t-27 67q0 30 16 53t33 33q-21 22 -62 34.5t-83 12.5q-121 0 -176.5 -82.5t-55.5 -282.5v-78z" />
<glyph unicode="&#xfb04;" horiz-adv-x="1730" d="M41 825v82h188v72q0 120 29.5 208t82.5 137t117 72t142 23q101 0 176 -37t98 -104q94 141 289 141q127 0 207 -53l148 47v-1331h176v-82h-443v82h135v743h-454v-743h176v-82h-442v82h135v743h-441v-743h177v-82h-463v82h155v743h-188zM360 907h441v72q0 86 14 149 q-10 -4 -29 -4q-44 0 -71 26t-27 67q0 30 16 53t33 33q-21 22 -62 34.5t-83 12.5q-121 0 -176.5 -82.5t-55.5 -282.5v-78zM932 907h454v228q-18 -7 -34 -7q-44 0 -69.5 26.5t-25.5 64.5q0 31 17 54t31 30q-61 47 -144 47q-121 0 -175 -82.5t-54 -282.5v-78z" />
<glyph horiz-adv-x="0" />
<glyph horiz-adv-x="682" />
<glyph unicode=" "  horiz-adv-x="356" />
<glyph unicode="&#x09;" horiz-adv-x="356" />
<glyph unicode="&#xa0;" horiz-adv-x="356" />
<glyph unicode="!" horiz-adv-x="524" d="M160 74q0 43 29.5 72.5t72.5 29.5t73 -29.5t30 -72.5t-30 -73t-73 -30t-72.5 30t-29.5 73zM176 1274q0 106 86 106t86 -106q0 -33 -4 -88.5t-13 -156t-12 -136.5q-27 -328 -34 -504h-45q-6 151 -35 504q-29 346 -29 381z" />
<glyph unicode="&#x22;" horiz-adv-x="751" d="M123 866l57 211q45 169 62 207q22 51 67 51q31 0 54.5 -18.5t23.5 -48.5q0 -25 -16 -62q-20 -45 -97 -176l-106 -184zM430 866l57 211q45 169 62 207q22 51 67 51q31 0 54.5 -18.5t23.5 -48.5q0 -25 -16 -62q-23 -52 -96 -176l-107 -184z" />
<glyph unicode="#" horiz-adv-x="1357" d="M63 332v90h289l84 426h-291v90h308l79 399h103l-78 -399h352l80 399h103l-80 -399h274v-90h-291l-84 -426h291v-90h-309l-80 -414h-104l82 414h-353l-80 -414h-104l80 414h-271zM457 422h350l84 426h-352z" />
<glyph unicode="$" horiz-adv-x="1046" d="M80 260q0 51 31 85t82 34q45 0 73.5 -30.5t28.5 -72.5q0 -67 -64 -108q36 -36 105 -62t162 -32v512q-209 62 -291 135t-82 213q0 126 102 224.5t271 115.5v141h77v-137q151 -6 261 -79.5t110 -172.5q0 -50 -29 -80.5t-73 -30.5t-72.5 27.5t-28.5 65.5q0 35 19.5 61 t50.5 39q-32 36 -92.5 64t-145.5 32v-499q217 -60 298 -137.5t81 -213.5q0 -132 -105.5 -236.5t-273.5 -117.5v-160h-77v160q-181 9 -299.5 87t-118.5 173zM246 963q0 -84 58 -138.5t194 -97.5v475q-122 -13 -187 -82.5t-65 -156.5zM575 74q114 10 185 81.5t71 170.5 q0 86 -57.5 139.5t-198.5 97.5v-489z" />
<glyph unicode="%" horiz-adv-x="1546" d="M88 813q0 117 53.5 220t142 163.5t187.5 60.5q116 0 172 -86q91 -53 193 -53q197 0 335 168h74l-860 -1339h-117l805 1188l-6 6q-117 -92 -254 -92q-75 0 -135 22q4 -32 4 -53q0 -79 -24.5 -161t-68 -151.5t-111 -114t-146.5 -44.5q-111 0 -177.5 72t-66.5 194zM215 799 q0 -81 35.5 -127.5t97.5 -46.5q70 0 130.5 60t93 150t32.5 183q0 44 -14 84q-51 28 -103 74h-14q-70 -2 -131 -60.5t-94 -144t-33 -172.5zM864 238q0 117 53.5 220t142 163.5t187.5 60.5q96 0 153.5 -60.5t57.5 -179.5q0 -79 -24.5 -161t-68 -151.5t-111 -114t-146.5 -44.5 q-111 0 -177.5 72.5t-66.5 194.5zM991 223q0 -81 35.5 -127.5t97.5 -46.5q70 0 130.5 60t93 150t32.5 183q0 76 -33.5 117.5t-97.5 40.5q-70 -2 -131 -60.5t-94 -144t-33 -172.5z" />
<glyph unicode="&#x26;" horiz-adv-x="1454" d="M106 301q0 126 82.5 217.5t260.5 163.5q-138 138 -138 289q0 122 95 210.5t225 88.5q127 0 205.5 -77.5t78.5 -174.5q0 -102 -60.5 -181.5t-211.5 -152.5q174 -163 297 -367q112 137 207 369h-164v82h416v-82h-160q-114 -269 -254 -436q60 -97 103 -135.5t90 -38.5 q41 0 72.5 32.5t62.5 104.5l61 -27q-38 -106 -93 -162.5t-140 -56.5q-73 0 -134 42.5t-122 142.5q-176 -185 -404 -185q-166 0 -270.5 97t-104.5 237zM252 317q0 -99 75.5 -173t196.5 -74q166 0 318 149q-60 109 -137 203.5t-201 208.5q-128 -60 -190 -134.5t-62 -179.5z M436 1006q0 -71 33 -132t123 -143q199 106 199 281q0 79 -45.5 130.5t-120.5 51.5q-86 0 -137.5 -55.5t-51.5 -132.5z" />
<glyph unicode="'" horiz-adv-x="452" d="M123 866l57 211q45 169 62 207q22 51 67 51q31 0 54.5 -18.5t23.5 -48.5q0 -25 -16 -62q-20 -45 -97 -176l-106 -184z" />
<glyph unicode="(" horiz-adv-x="739" d="M143 584q0 599 547 905l39 -62q-225 -146 -334.5 -354t-109.5 -489t110 -489.5t334 -354.5l-39 -62q-547 306 -547 906z" />
<glyph unicode=")" horiz-adv-x="739" d="M10 -260q225 147 335 355t110 489t-110 488.5t-335 354.5l39 62q547 -306 547 -905q0 -600 -547 -906z" />
<glyph unicode="*" horiz-adv-x="788" d="M133 1303q38 53 96 8q17 -13 44.5 -44t58.5 -69.5t43 -52.5l22 6q1 8 6 100.5t13 120.5q21 68 84 47q55 -17 32 -86q-6 -20 -27 -55t-47.5 -76.5t-35.5 -56.5l14 -21q10 3 47 14t63 18t57.5 13.5t49.5 6.5q68 0 68 -62q0 -61 -70 -61q-28 0 -117.5 22.5t-99.5 24.5 l-12 -21q100 -146 113 -190q21 -65 -35 -84q-59 -19 -80 47q-7 23 -11 64.5t-6 90t-4 66.5l-24 6q-6 -8 -31 -39t-41 -51t-38 -43.5t-36 -34.5q-52 -43 -92 9q-39 51 19 90q18 13 56 30t85.5 36t62.5 26v22q-5 2 -60.5 22.5t-90.5 35.5t-53 28q-59 43 -23 93z" />
<glyph unicode="+" horiz-adv-x="1071" d="M117 524v78h377v387h86v-387h376v-78h-376v-387h-86v387h-377z" />
<glyph unicode="," horiz-adv-x="409" d="M35 -215q101 50 144.5 99t53.5 110l-4 4q-20 -10 -41 -10q-37 0 -61.5 26t-24.5 64q0 39 27.5 68.5t69.5 29.5q53 0 81.5 -37.5t28.5 -97.5q0 -200 -248 -311z" />
<glyph unicode="-" d="M113 430v113h524v-113h-524z" />
<glyph unicode="." horiz-adv-x="409" d="M102 74q0 43 30 72.5t73 29.5t72.5 -29.5t29.5 -72.5t-29.5 -73t-72.5 -30t-73 30t-30 73z" />
<glyph unicode="/" horiz-adv-x="835" d="M-98 -416l790 1837h105l-791 -1837h-104z" />
<glyph unicode="0" horiz-adv-x="1124" d="M96 633q0 191 56.5 344t162.5 241.5t244 88.5q145 0 252.5 -87.5t162 -236.5t54.5 -340t-56.5 -344.5t-162.5 -242.5t-244 -89q-145 0 -252.5 88t-162 237.5t-54.5 340.5zM246 637q0 -171 36 -302.5t110 -208.5t177 -77t174 77t103.5 207t32.5 304q0 264 -84 426 t-240 162q-104 0 -174.5 -77t-102.5 -206.5t-32 -304.5z" />
<glyph unicode="1" horiz-adv-x="874" d="M98 0v82h303v999q-67 -34 -194 -34q-69 0 -109 12v67q124 0 222 43t141 123h78v-1210h282v-82h-723z" />
<glyph unicode="2" horiz-adv-x="1077" d="M94 109q0 112 99 224t323 253q93 58 152 110.5t95 118.5t36 141q0 116 -75.5 193.5t-201.5 77.5q-102 0 -176 -45.5t-106 -110.5q43 -9 68.5 -38t25.5 -72t-30 -75t-75 -32q-47 0 -79.5 37t-32.5 100q0 55 32 111.5t87 102t135.5 74t169.5 28.5q97 0 175.5 -29.5 t127 -79.5t74.5 -113t26 -133q0 -135 -91.5 -236t-287.5 -202q-176 -91 -266.5 -180t-101.5 -166l4 -2q77 41 170 41q47 0 96 -17.5t84 -38t79.5 -38t82.5 -17.5q82 0 130 72t85 246l61 -4q-21 -237 -94 -340t-195 -103q-52 0 -107 26.5t-94 57.5t-87.5 57.5t-89.5 26.5 q-34 0 -64 -10q21 -38 21 -66q0 -41 -21.5 -66.5t-58.5 -25.5q-50 0 -77.5 40.5t-27.5 101.5z" />
<glyph unicode="3" horiz-adv-x="1034" d="M78 242q0 52 30.5 87.5t79.5 35.5q45 0 74 -30t29 -71q0 -37 -19.5 -67.5t-48.5 -46.5q32 -40 96 -71.5t160 -31.5q133 0 218 80.5t85 200.5q0 134 -93.5 210t-270.5 76h-60v86h50q172 0 264 73t92 206q0 109 -73 178.5t-199 69.5q-103 0 -166 -36t-93 -85 q40 -12 64.5 -41.5t24.5 -69.5q0 -41 -28 -72.5t-75 -31.5t-78.5 34.5t-31.5 88.5q0 52 28.5 104t79 94t127 68.5t164.5 26.5q182 0 291.5 -94t109.5 -234q0 -128 -85.5 -206.5t-231.5 -113.5v-4q163 -30 249.5 -106t86.5 -197q0 -163 -121.5 -274t-319.5 -111 q-170 0 -289.5 83.5t-119.5 191.5z" />
<glyph unicode="4" horiz-adv-x="1114" d="M51 365v88l613 843h133v-845h268v-86h-268v-283h200v-82h-538v82h203v283h-611zM160 451h504v692h-5z" />
<glyph unicode="5" horiz-adv-x="1017" d="M86 260q0 57 34.5 96t84.5 39q49 0 75.5 -29t26.5 -71t-27.5 -75t-66.5 -44q35 -54 103.5 -91.5t162.5 -37.5q140 0 223.5 101.5t83.5 261.5q0 154 -68.5 232.5t-195.5 78.5q-160 0 -291 -127l-73 24l45 662l22 16q193 -75 361 -75q94 0 157 17.5t136 55.5l24 -43 q-129 -166 -338 -166q-136 0 -282 58l-29 -432q120 94 285 94q172 0 282.5 -106.5t110.5 -276.5q0 -85 -30 -165.5t-84 -145.5t-140 -104.5t-189 -39.5q-162 0 -282.5 87.5t-120.5 205.5z" />
<glyph unicode="6" horiz-adv-x="1052" d="M94 557q0 214 64.5 383.5t188 268t286.5 98.5q138 0 221.5 -63.5t83.5 -156.5q0 -60 -33 -97.5t-84 -37.5q-50 0 -79 30t-29 73q0 36 23 67.5t65 42.5q-50 62 -162 62q-186 0 -290 -163t-113 -458q57 86 141 138.5t192 52.5q180 0 284.5 -110t104.5 -279 q0 -119 -46.5 -217.5t-143.5 -161t-229 -62.5q-208 0 -326.5 161t-118.5 429zM248 387q0 -142 82 -240t215 -98q126 0 197 94.5t71 255.5q0 83 -27.5 152t-90 115.5t-150.5 46.5q-127 0 -212 -93t-85 -233z" />
<glyph unicode="7" horiz-adv-x="1064" d="M109 807v473h81l9 -182h4q33 96 81.5 144t129.5 48q45 0 83.5 -16t66.5 -39t55 -46.5t60 -39.5t69 -16q58 0 122 34q-28 28 -28 64q0 34 24 57t58 23q41 0 65.5 -28t24.5 -69q0 -62 -38 -120.5t-163 -208.5q-145 -173 -212.5 -357t-80.5 -458q-6 -103 -82 -103 q-35 0 -57.5 21t-22.5 61q-1 103 41.5 249.5t136 319t216.5 304.5q118 126 157 202l-4 4q-109 -63 -192 -63q-60 0 -119.5 22.5t-113.5 45t-101 22.5q-55 0 -92.5 -28.5t-64 -107t-36.5 -212.5h-77z" />
<glyph unicode="8" horiz-adv-x="1073" d="M94 307q0 50 13 96t41.5 92t82 86t127.5 68q-119 54 -172 128t-53 175q0 151 113 253t301 102q175 0 282 -95t107 -225q0 -116 -60 -196.5t-184 -131.5q287 -106 287 -311q0 -159 -129.5 -270t-325.5 -111q-189 0 -309.5 100t-120.5 240zM217 317q0 -116 89.5 -194 t230.5 -78q129 0 216 78.5t87 187.5q0 100 -87 165t-304 138q-115 -43 -173.5 -120.5t-58.5 -176.5zM272 983q0 -105 74.5 -171.5t257.5 -121.5q213 97 213 281q0 109 -75.5 182.5t-202.5 73.5q-121 0 -194 -72.5t-73 -171.5z" />
<glyph unicode="9" horiz-adv-x="1052" d="M94 858q0 92 27.5 172.5t79 142.5t132.5 98t181 36q208 0 326 -161t118 -429q0 -218 -61 -386.5t-182.5 -266t-286.5 -97.5q-155 0 -242.5 66.5t-87.5 165.5q0 57 33 94t84 37q50 0 79.5 -30t29.5 -73q0 -36 -23 -67.5t-65 -42.5q59 -70 186 -70q184 0 285 158t110 446 q-57 -86 -141.5 -138t-192.5 -52q-180 0 -284.5 111t-104.5 286zM240 866q0 -135 69 -228t199 -93q128 0 212.5 94t84.5 240q0 148 -81.5 247t-215.5 99q-127 0 -197.5 -96t-70.5 -263z" />
<glyph unicode=":" horiz-adv-x="409" d="M102 74q0 43 30 72.5t73 29.5t72.5 -29.5t29.5 -72.5t-29.5 -73t-72.5 -30t-73 30t-30 73zM102 696q0 43 30 73t73 30t72.5 -30t29.5 -73t-29.5 -72.5t-72.5 -29.5t-73 29.5t-30 72.5z" />
<glyph unicode=";" horiz-adv-x="409" d="M35 -215q101 50 144.5 99t53.5 110l-4 4q-20 -10 -41 -10q-37 0 -61.5 26t-24.5 64q0 39 27.5 68.5t69.5 29.5q53 0 81.5 -37.5t28.5 -97.5q0 -200 -248 -311zM102 696q0 43 30 73t73 30t72.5 -30t29.5 -73t-29.5 -72.5t-72.5 -29.5t-73 29.5t-30 72.5z" />
<glyph unicode="&#x3c;" horiz-adv-x="1044" d="M168 532v64l709 365v-89l-607 -309l607 -307v-90z" />
<glyph unicode="=" horiz-adv-x="1077" d="M123 346v78h831v-78h-831zM123 702v78h831v-78h-831z" />
<glyph unicode="&#x3e;" horiz-adv-x="1044" d="M168 166v88l606 309l-606 307v91l709 -367v-64z" />
<glyph unicode="?" horiz-adv-x="841" d="M61 1090q0 115 107 202.5t252 87.5q173 0 273 -88t100 -223q0 -100 -46.5 -177.5t-160.5 -180.5q-82 -74 -119 -147.5t-43 -174.5h-57q-1 119 28 200t101 171q91 110 121 168t30 141q0 101 -66 169.5t-171 68.5q-80 0 -140.5 -36.5t-87.5 -88.5q44 -8 71.5 -37t27.5 -72 q0 -45 -30.5 -76.5t-76.5 -31.5q-50 0 -81.5 36t-31.5 89zM299 74q0 43 29.5 72.5t72.5 29.5t73 -29.5t30 -72.5t-30 -73t-73 -30t-72.5 30t-29.5 73z" />
<glyph unicode="@" horiz-adv-x="1859" d="M131 494q0 187 68 352t184.5 282t277.5 184.5t340 67.5q148 0 280.5 -49.5t232 -139t157.5 -223t58 -292.5q0 -129 -39 -236.5t-103.5 -176t-144.5 -105.5t-164 -37q-107 0 -161.5 56t-45.5 165l-14 6q-139 -198 -287 -198q-98 0 -159.5 69t-61.5 191q0 125 52.5 244.5 t141.5 199.5q122 109 242 109q70 0 123.5 -42t71.5 -126l49 157h114l-151 -503q-20 -64 -22.5 -111.5t6.5 -74.5t30 -43t42.5 -20.5t49.5 -4.5q143 0 247 131.5t104 347.5q0 188 -85 333t-233.5 222.5t-337.5 77.5q-167 0 -313.5 -64t-248.5 -173.5t-161 -259.5t-59 -318 q0 -328 199 -522.5t534 -194.5q154 0 292 47t247 127l37 -55q-119 -89 -271.5 -141t-310.5 -52q-173 0 -320 53t-255.5 152t-170 250.5t-61.5 337.5zM674 414q0 -84 36.5 -129t98.5 -45q79 0 158.5 77.5t127.5 184.5t48 196q0 30 -8 61t-24.5 61t-47.5 49.5t-72 19.5 q-79 0 -153.5 -73t-119 -183.5t-44.5 -218.5z" />
<glyph unicode="A" horiz-adv-x="1376" d="M6 0v82h141l502 1255h92l467 -1255h162v-82h-526v82h209l-148 405h-502l-157 -405h188v-82h-428zM434 565h443l-211 580h-4z" />
<glyph unicode="B" horiz-adv-x="1267" d="M70 0v82h225v1163h-225v82h575q488 0 488 -319q0 -45 -16 -88.5t-50.5 -88t-102 -79.5t-159.5 -52v-4q189 -14 290 -103t101 -218q0 -60 -14.5 -111.5t-53 -101.5t-98.5 -84.5t-158 -56t-225 -21.5h-577zM438 82h240q191 0 276.5 71.5t85.5 227.5q0 129 -96 202.5 t-278 73.5h-228v-575zM438 737h234q154 0 230.5 71t76.5 202q0 116 -68.5 175.5t-226.5 59.5h-246v-508z" />
<glyph unicode="C" horiz-adv-x="1380" d="M111 662q0 200 80 359.5t219.5 248t310.5 88.5q246 0 391 -166l41 160h82v-488h-70q-61 201 -166 300.5t-282 99.5q-203 0 -327 -162.5t-124 -427.5q0 -289 131.5 -450t339.5 -161q177 0 291.5 119t145.5 328h92q-34 -263 -176.5 -403t-378.5 -140q-267 0 -433.5 191 t-166.5 504z" />
<glyph unicode="D" horiz-adv-x="1413" d="M70 0v82h225v1163h-225v82h530q177 0 312.5 -46t221.5 -131t129.5 -202t43.5 -264q0 -148 -42 -270.5t-125 -216t-219 -145.5t-313 -52h-538zM438 82h178q274 0 404.5 151.5t130.5 450.5q0 269 -134 415t-411 146h-168v-1163z" />
<glyph unicode="E" horiz-adv-x="1310" d="M70 0v82h225v1163h-225v82h1101v-401h-65q-11 77 -18.5 121.5t-18 84.5t-20 58.5t-25.5 33t-34 18t-46 3.5h-506v-526h252q39 0 59 5t35.5 29t22.5 59.5t16 109.5h64v-488h-64q-8 76 -15 114t-22.5 62t-35.5 29.5t-60 5.5h-252v-563h506q33 0 53 3.5t38.5 20t28.5 36.5 t21.5 66.5t19 95.5t19.5 138h66v-442h-1120z" />
<glyph unicode="F" horiz-adv-x="1286" d="M70 0v82h225v1163h-225v82h1128v-409h-65q-22 146 -44 214t-51 90.5t-86 22.5h-514v-551h244q30 0 47.5 4.5t31.5 14.5t23 36t15.5 59t15.5 95h64v-504h-64q-12 103 -25 147t-35.5 59.5t-72.5 15.5h-244v-539h248v-82h-616z" />
<glyph unicode="G" horiz-adv-x="1443" d="M111 668q0 140 44 266t121.5 219.5t189.5 149t241 55.5q109 0 209.5 -44.5t168.5 -121.5l41 160h82v-475h-69q-57 187 -164 287t-264 100q-211 0 -328 -161t-117 -423q0 -285 121.5 -449.5t331.5 -164.5q74 0 139 26t109 70q112 112 112 340v57h-252v82h582v-82h-186 v-573h-74l-62 200q-58 -106 -159 -162.5t-226 -56.5q-135 0 -247 54.5t-187 149.5t-116 223t-41 274z" />
<glyph unicode="H" horiz-adv-x="1552" d="M70 0v82h225v1163h-225v82h573v-82h-205v-520h676v520h-205v82h574v-82h-226v-1163h226v-82h-574v82h205v565h-676v-565h205v-82h-573z" />
<glyph unicode="I" d="M78 0v82h225v1163h-225v82h594v-82h-226v-1163h226v-82h-594z" />
<glyph unicode="J" horiz-adv-x="1040" d="M70 260q0 61 35 101t88 40q52 0 81 -33t29 -79q0 -96 -102 -115q22 -50 79 -84.5t136 -34.5q110 0 173.5 76t63.5 207v907h-211v82h549v-82h-194v-876q0 -187 -103 -294.5t-268 -107.5q-161 0 -258.5 89t-97.5 204z" />
<glyph unicode="K" horiz-adv-x="1458" d="M70 0v82h225v1163h-225v82h573v-82h-205v-665l660 665h-189v82h494v-82h-174l-475 -469l520 -694h160v-82h-531v82h193l-441 596l-217 -213v-383h205v-82h-573z" />
<glyph unicode="L" horiz-adv-x="1234" d="M70 0v82h225v1163h-225v82h616v-82h-248v-1163h500q59 0 83 75t66 345h66v-502h-1083z" />
<glyph unicode="M" horiz-adv-x="1867" d="M70 0v82h215v1163h-215v82h452l408 -1079h6l420 1079h442v-82h-225v-1163h225v-82h-549v82h181v1163h-9l-497 -1247h-50l-487 1247h-8v-1163h192v-82h-501z" />
<glyph unicode="N" horiz-adv-x="1529" d="M70 0v82h215v1163h-215v82h364l748 -1083h4v1001h-203v82h498v-82h-201v-1278h-78l-819 1186h-4v-1071h199v-82h-508z" />
<glyph unicode="O" horiz-adv-x="1441" d="M111 664q0 147 48.5 276.5t131 220t194.5 143t236 52.5q128 0 240.5 -50.5t194 -140.5t128.5 -220.5t47 -282.5q0 -148 -48.5 -278t-131 -221t-194.5 -143.5t-236 -52.5q-128 0 -240.5 51.5t-194 142t-128.5 221t-47 282.5zM266 664q0 -275 124.5 -442t330.5 -167 q207 0 331 165t124 442q0 274 -124 440t-331 166q-206 0 -330.5 -166t-124.5 -438z" />
<glyph unicode="P" horiz-adv-x="1228" d="M70 0v82h225v1163h-225v82h575q143 0 245 -30t158 -84t80.5 -118.5t24.5 -144.5q0 -177 -133.5 -287t-374.5 -110h-207v-471h248v-82h-616zM438 635h209q173 0 261.5 85.5t88.5 233.5q0 291 -344 291h-215v-610z" />
<glyph unicode="Q" horiz-adv-x="1441" d="M111 664q0 147 48.5 276.5t131 220t194.5 143t236 52.5q128 0 240.5 -50.5t194 -140.5t128.5 -220.5t47 -282.5q0 -179 -69 -328t-187 -242q65 -111 106.5 -152.5t88.5 -41.5q60 0 94.5 57t50.5 166h86q-24 -336 -248 -336q-89 0 -150.5 59t-125.5 185q-124 -62 -256 -62 q-128 0 -240.5 51.5t-194 142t-128.5 221t-47 282.5zM266 664q0 -165 46.5 -294.5t129.5 -205.5q-5 34 -5 68v18q2 43 21 82t47.5 68.5t74.5 47t102 17.5q55 0 103 -20.5t89.5 -61.5t75 -86.5t72.5 -112.5q72 80 113 203t41 275q0 274 -124 440t-331 166q-206 0 -330.5 -166 t-124.5 -438zM516 223q0 -75 55.5 -122.5t176.5 -47.5q104 0 190 56q-33 69 -57.5 112t-57 83.5t-70.5 59.5t-83 19q-69 0 -111.5 -45.5t-42.5 -114.5z" />
<glyph unicode="R" horiz-adv-x="1372" d="M70 0v82h225v1163h-225v82h649q219 0 339 -93.5t120 -250.5q0 -115 -76.5 -207.5t-231.5 -122.5v-4q130 -35 187.5 -102.5t66.5 -190.5l15 -184q9 -94 78 -94q34 0 58 24.5t46 79.5l51 -26q-33 -90 -80 -134.5t-123 -44.5q-88 0 -136.5 53.5t-51.5 184.5l-4 162 q-3 126 -61 177.5t-207 51.5h-271v-524h228v-82h-596zM438 682h260q164 0 242 82t78 227q0 254 -293 254h-287v-563z" />
<glyph unicode="S" horiz-adv-x="1148" d="M115 -27v447h67q166 -377 473 -377q121 0 197 68.5t76 195.5q0 48 -10 85t-34 65.5t-51 49t-74 39t-89 31t-109 29.5q-64 16 -108.5 30t-98.5 36t-90 49t-68 64t-47.5 87t-15.5 111q0 166 109 269.5t290 103.5q107 0 197 -42t154 -112l41 148h71v-422h-67 q-64 183 -171 268.5t-235 85.5q-110 0 -186 -67t-76 -187q0 -41 9.5 -75t23.5 -58.5t41 -46t50.5 -35.5t64.5 -29t70.5 -23t80.5 -22q193 -52 265 -86q138 -65 174 -178q16 -50 16 -110q0 -175 -115 -286.5t-295 -111.5q-237 0 -414 183l-45 -177h-71z" />
<glyph unicode="T" horiz-adv-x="1359" d="M104 877v450h1151v-450h-63q-31 219 -48 272q-21 68 -67 86q-26 10 -71 10h-254v-1163h233v-82h-610v82h233v1163h-254q-35 0 -57.5 -5.5t-40.5 -21t-29 -39t-20.5 -65t-17.5 -93t-19 -128.5q-1 -10 -2 -16h-64z" />
<glyph unicode="U" horiz-adv-x="1474" d="M49 1245v82h549v-82h-211v-817q0 -189 97 -274.5t290 -85.5q82 0 155.5 26t119.5 70q52 52 76 125.5t24 185.5v770h-203v82h479v-82h-182v-811q0 -211 -130.5 -339t-379.5 -128q-243 0 -366 117.5t-123 316.5v844h-195z" />
<glyph unicode="V" horiz-adv-x="1380" d="M6 1245v82h526v-82h-208l389 -1055h4l418 1055h-189v82h428v-82h-141l-506 -1253h-86l-473 1253h-162z" />
<glyph unicode="W" horiz-adv-x="2000" d="M12 1245v82h510v-82h-196l319 -1038h4l314 938l-31 100h-158v82h504v-82h-197l320 -1038h4l348 1038h-188v82h424v-82h-142l-428 -1253h-94l-317 1009l-344 -1009h-95l-395 1253h-162z" />
<glyph unicode="X" horiz-adv-x="1357" d="M25 0v82h161l412 584l-381 579h-176v82h537v-82h-189l305 -481l330 481h-201v82h484v-82h-162l-389 -553l403 -610h174v-82h-532v82h186l-328 512l-352 -512h197v-82h-479z" />
<glyph unicode="Y" horiz-adv-x="1286" d="M6 1245v82h526v-82h-184l326 -581l348 581h-172v82h436v-82h-158l-417 -682v-481h207v-82h-558v82h207v479l-393 684h-168z" />
<glyph unicode="Z" horiz-adv-x="1212" d="M76 0v51l858 1194h-596q-46 0 -67 -20t-40 -90.5t-45 -241.5h-65v434h1005v-51l-854 -1194h637q23 0 37 3.5t28 18.5t22.5 36.5t19.5 66.5t20 98.5t23 143.5h65v-449h-1048z" />
<glyph unicode="[" horiz-adv-x="684" d="M182 -305v1778h484v-78h-351v-1622h351v-78h-484z" />
<glyph unicode="\" horiz-adv-x="835" d="M39 1421h104l791 -1837h-105z" />
<glyph unicode="]" horiz-adv-x="684" d="M18 -227h351v1622h-351v78h484v-1778h-484v78z" />
<glyph unicode="^" horiz-adv-x="681" d="M70 1040l233 400h74l233 -400h-63l-207 254l-207 -254h-63z" />
<glyph unicode="_" horiz-adv-x="901" d="M-4 0v92h909v-92h-909z" />
<glyph unicode="`" horiz-adv-x="487" d="M57 1403q0 30 18 47.5t44 17.5q34 0 58 -30t56 -109l105 -258h-57l-131 170q-6 9 -18.5 24.5t-17.5 22.5t-14 19.5t-13 18.5t-10.5 16t-9 16.5t-5.5 14.5t-4 15.5t-1 14.5z" />
<glyph unicode="a" horiz-adv-x="976" d="M98 219q0 98 60 158q49 49 125.5 76t224.5 53q99 18 123 27.5t24 33.5v86q0 199 -194 199q-60 0 -112 -17.5t-81 -46.5q56 -32 56 -90q0 -42 -28 -70t-69 -28q-43 0 -69.5 28t-26.5 77q0 88 105 152.5t239 64.5q311 0 311 -271v-485q0 -54 16.5 -73t45.5 -19 q28 0 48.5 20t41.5 66l51 -25q-37 -80 -72.5 -113.5t-99.5 -33.5q-141 0 -147 172h-4q-54 -80 -136 -128t-176 -48q-122 0 -189 63t-67 172zM242 240q0 -83 43.5 -125.5t124.5 -42.5q93 0 169 63t76 141v199q-12 -4 -106 -20q-166 -27 -236.5 -75.5t-70.5 -139.5z" />
<glyph unicode="b" horiz-adv-x="1044" d="M16 1325v82h287v-705q55 109 135.5 166.5t175.5 57.5q124 0 211 -84q131 -128 131 -375q0 -120 -36.5 -221.5t-102.5 -167.5q-94 -94 -225 -94q-99 0 -181.5 59.5t-121.5 163.5l-53 -217h-64v1335h-156zM299 432q0 -169 78 -263.5t188 -94.5q112 0 181 103.5t69 283.5 q0 176 -67 275.5t-175 99.5q-117 0 -195.5 -114.5t-78.5 -289.5z" />
<glyph unicode="c" horiz-adv-x="950" d="M84 432q0 220 122 357t326 137q95 0 175 -41t122.5 -99.5t42.5 -117.5q0 -52 -30 -87.5t-76 -35.5q-44 0 -72 29.5t-28 70.5q0 77 77 103q-75 104 -215 104q-138 0 -220.5 -111.5t-82.5 -291.5q0 -174 80.5 -276.5t214.5 -102.5q104 0 172.5 55.5t112.5 165.5h78 q-41 -152 -142 -230.5t-249 -78.5q-175 0 -291.5 127t-116.5 323z" />
<glyph unicode="d" horiz-adv-x="1069" d="M88 442q0 120 36.5 221.5t102.5 167.5q95 95 226 95q90 0 166.5 -50.5t117.5 -140.5v592h-155v80h286v-1325h156v-82h-283v207q-55 -109 -135.5 -166t-175.5 -57q-124 0 -211 84q-131 128 -131 374zM229 449q0 -176 67 -275.5t175 -99.5q117 0 195.5 114t78.5 289 q0 170 -78 264.5t-188 94.5q-112 0 -181 -103.5t-69 -283.5z" />
<glyph unicode="e" horiz-adv-x="952" d="M84 444q0 103 33.5 193.5t90.5 153.5t134 99t162 36q93 0 166.5 -40t117.5 -108q42 -68 64 -152q20 -77 20 -161v-16h-647q1 -180 83.5 -278.5t215.5 -98.5q93 0 160.5 42t106.5 144h75q-43 -134 -136 -205t-226 -71q-189 0 -304.5 127.5t-115.5 334.5zM229 530h504 q-11 156 -70.5 239t-162.5 83q-108 0 -182 -86.5t-89 -235.5z" />
<glyph unicode="f" horiz-adv-x="673" d="M41 825v82h188v72q0 97 19.5 173t53 125.5t80.5 82t98 46t110 13.5q103 0 177.5 -47t74.5 -127q0 -44 -27 -75t-67 -31q-44 0 -69.5 26t-25.5 64q0 31 16.5 54t30.5 30q-34 37 -118 37q-116 0 -169 -83t-53 -282v-78h275v-82h-275v-743h218v-82h-504v82h155v743h-188z " />
<glyph unicode="g" horiz-adv-x="948" d="M51 -106q0 68 53.5 117.5t141.5 68.5v4q-82 23 -117 55t-35 82t46.5 89.5t127.5 58.5q-79 42 -119 102t-40 150q0 138 99 218.5t243 80.5q73 0 157 -33q103 184 234 184q46 0 76 -27t30 -71q0 -38 -23.5 -64t-62.5 -26q-35 0 -55.5 22.5t-20.5 57.5q0 12 2 20 q-29 -3 -65.5 -35.5t-65.5 -87.5q138 -85 138 -235q0 -139 -93 -218t-249 -79q-23 0 -66 3t-61 3q-50 0 -84.5 -25t-34.5 -59q0 -41 50 -61.5t134 -20.5h240q246 0 246 -191q0 -126 -123 -211t-320 -85q-178 0 -280.5 60t-102.5 153zM180 -100q0 -69 66.5 -109.5 t193.5 -40.5q145 0 232.5 54t87.5 139q0 116 -148 116h-229q-95 0 -149 -41.5t-54 -117.5zM250 623q0 -112 58 -171t153 -59q90 0 141 60.5t51 169.5q0 101 -55.5 167t-151.5 66q-89 0 -142.5 -59.5t-53.5 -173.5z" />
<glyph unicode="h" horiz-adv-x="1114" d="M45 0v82h156v1245h-156v80h287v-733q141 252 344 252q121 0 185.5 -73.5t64.5 -217.5v-553h155v-82h-430v82h144v479q0 157 -54 211q-42 45 -123 45q-73 0 -141 -49.5t-106.5 -118t-38.5 -127.5v-440h143v-82h-430z" />
<glyph unicode="i" horiz-adv-x="587" d="M68 0v82h176v743h-176v82h307v-825h176v-82h-483zM197 1227q0 43 28 72.5t72 29.5q39 0 67.5 -28.5t28.5 -71.5q0 -45 -28 -74t-68 -29q-43 0 -71.5 28t-28.5 73z" />
<glyph unicode="j" horiz-adv-x="559" d="M-88 -170q0 45 28 76t70 31t67 -24.5t25 -62.5q0 -59 -53 -92q28 -22 70 -22q63 0 100 55.5t37 169.5v864h-176v82h307v-889q0 -175 -72 -260.5t-196 -85.5q-84 0 -145.5 46.5t-61.5 111.5zM209 1227q0 43 28 72.5t72 29.5q39 0 68 -28.5t29 -71.5q0 -45 -28 -74t-69 -29 q-43 0 -71.5 28t-28.5 73z" />
<glyph unicode="k" horiz-adv-x="1038" d="M45 0v82h156v1245h-156v80h287v-1006l401 426h-153v80h397v-82h-137l-254 -264l315 -479h121v-82h-399v80h129l-256 395l-164 -170v-223h137v-82h-424z" />
<glyph unicode="l" horiz-adv-x="557" d="M37 0v82h176v1245h-176v80h307v-1325h176v-82h-483z" />
<glyph unicode="m" horiz-adv-x="1691" d="M70 0v82h155v743h-155v82h282v-235q146 254 336 254q110 0 170.5 -63.5t69.5 -186.5q144 250 334 250q241 0 241 -293v-551h156v-82h-420v82h133v479q0 83 -10.5 134t-40.5 81q-39 39 -117 39q-72 0 -137 -49.5t-101 -117t-36 -126.5v-440h133v-82h-397v82h133v479 q0 83 -10.5 134t-40.5 81q-39 39 -117 39q-72 0 -137.5 -49.5t-101.5 -117t-36 -126.5v-440h133v-82h-419z" />
<glyph unicode="n" horiz-adv-x="1138" d="M70 0v82h155v743h-155v82h282v-235q146 254 348 254q121 0 185.5 -73.5t64.5 -217.5v-553h154v-82h-428v82h143v479q0 158 -53 211q-42 45 -123 45q-73 0 -141.5 -49.5t-107 -118t-38.5 -127.5v-440h144v-82h-430z" />
<glyph unicode="o" horiz-adv-x="1019" d="M84 444q0 210 125 346t301 136q183 0 304.5 -128t121.5 -337q0 -210 -125 -344.5t-301 -134.5q-184 0 -305 127t-121 335zM225 451q0 -192 86.5 -294t204.5 -102q117 0 198 103.5t81 296.5q0 192 -86.5 294.5t-204.5 102.5q-117 0 -198 -104t-81 -297z" />
<glyph unicode="p" horiz-adv-x="1073" d="M51 -219h156v1044h-156v82h283v-215q108 234 313 234q127 0 215 -88q60 -60 91.5 -156t31.5 -211q0 -114 -36 -213t-99 -162q-96 -96 -229 -96q-97 0 -171 55.5t-112 141.5v-416h201v-82h-488v82zM334 444q0 -155 75 -254.5t189 -99.5q109 0 177.5 98.5t68.5 282.5 q0 188 -68 276.5t-168 88.5q-116 0 -195 -113t-79 -279z" />
<glyph unicode="q" horiz-adv-x="1042" d="M88 455q0 113 36 212t99 162q97 97 230 97q96 0 179 -60t122 -164l53 218h63v-1139h156v-82h-487v82h200v452q-108 -233 -313 -233q-124 0 -215 88q-123 126 -123 367zM229 455q0 -188 68 -276.5t168 -88.5q116 0 195 112.5t79 278.5q0 155 -75.5 255t-188.5 100 q-109 0 -177.5 -98.5t-68.5 -282.5z" />
<glyph unicode="r" horiz-adv-x="800" d="M70 0v82h155v743h-155v82h282v-215q51 112 126 171t157 59q62 0 98.5 -37t36.5 -92q0 -44 -28.5 -75.5t-71.5 -31.5q-40 0 -67.5 26.5t-27.5 67.5q0 19 11 45q-7 1 -14 1q-44 0 -88 -34q-52 -38 -83 -86.5t-45 -91.5v-532h185v-82h-471z" />
<glyph unicode="s" horiz-adv-x="870" d="M92 -18v344h68q37 -132 116 -202.5t197 -70.5q87 0 143 42t56 112q0 73 -55 112.5t-197 79.5q-169 47 -240 108.5t-71 160.5q0 105 84.5 181.5t214.5 76.5q83 0 147.5 -29.5t99.5 -83.5l25 113h65v-312h-63q-53 128 -112.5 184t-161.5 56q-76 0 -128.5 -39.5 t-52.5 -103.5q0 -68 57 -110.5t187 -78.5q178 -51 245.5 -107t67.5 -165q0 -108 -84.5 -188t-220.5 -80q-194 0 -299 133l-22 -133h-66z" />
<glyph unicode="t" horiz-adv-x="698" d="M16 825v82h189v254l131 21v-275h297v-82h-297v-602q0 -70 30.5 -108.5t88.5 -38.5t94.5 39t64.5 127l60 -21q-35 -129 -96.5 -184t-151.5 -55q-109 0 -165 64.5t-56 184.5v594h-189z" />
<glyph unicode="u" horiz-adv-x="1105" d="M35 825v82h284v-561q0 -161 54 -215q39 -41 121 -41q72 0 138.5 49.5t104 117.5t37.5 128v440h-162v82h293v-825h156v-82h-283v236q-143 -254 -342 -254q-119 0 -183.5 73.5t-64.5 216.5v553h-153z" />
<glyph unicode="v" horiz-adv-x="980" d="M0 825v82h432v-82h-160l242 -669h4l266 669h-149v82h346v-82h-104l-347 -837h-81l-324 837h-125z" />
<glyph unicode="w" horiz-adv-x="1515" d="M6 825v82h424v-82h-160l219 -663h5l237 600l-22 63h-125v82h420v-82h-160l229 -663h4l242 663h-150v82h340v-82h-104l-313 -837h-86l-232 653l-266 -653h-86l-291 837h-125z" />
<glyph unicode="x" horiz-adv-x="968" d="M20 0v82h111l287 356l-283 387h-115v82h410v-78h-137l213 -305l233 305h-127v78h336v-82h-104l-289 -358l281 -385h112v-82h-399v78h135l-217 303l-236 -303h123v-78h-334z" />
<glyph unicode="y" horiz-adv-x="974" d="M0 825v82h430v-82h-160l252 -669l256 669h-147v82h344v-82h-105l-309 -778q-82 -206 -170 -290.5t-194 -84.5q-77 0 -120.5 37t-43.5 92q0 48 29.5 80.5t74.5 32.5q40 0 66 -25t26 -65q0 -45 -24 -76h11l113 49q62 54 122 201l-328 827h-123z" />
<glyph unicode="z" horiz-adv-x="923" d="M66 0v70l614 766h-401q-56 0 -75.5 -40t-43.5 -192h-62v303h752v-69l-617 -766h451q53 0 70.5 44t38.5 210h61v-326h-788z" />
<glyph unicode="{" horiz-adv-x="794" d="M33 545v80h61q139 0 210 54t71 142q0 49 -14.5 154t-14.5 151q0 160 98.5 252t303.5 99v-70q-145 -13 -208 -78t-63 -178q0 -49 10.5 -153t10.5 -156q0 -98 -66 -166t-180 -90v-2q114 -22 180 -90t66 -166q0 -52 -10.5 -156.5t-10.5 -153.5q0 -113 63 -178t208 -78v-69 q-205 7 -303.5 98.5t-98.5 251.5q0 45 14.5 151t14.5 154q0 88 -71 142.5t-210 54.5h-61z" />
<glyph unicode="|" horiz-adv-x="552" d="M229 -416v1837h95v-1837h-95z" />
<glyph unicode="}" horiz-adv-x="794" d="M47 -238q145 13 207.5 78t62.5 178q0 48 -10 153t-10 157q0 98 66 166t180 90v2q-114 22 -180 90t-66 166q0 52 10 156t10 153q0 113 -62.5 178t-207.5 78v70q205 -7 303.5 -99t98.5 -252q0 -46 -14.5 -151t-14.5 -154q0 -88 70.5 -142t209.5 -54h62v-80h-62 q-139 0 -209.5 -54.5t-70.5 -142.5q0 -48 14.5 -154t14.5 -151q0 -160 -98.5 -251.5t-303.5 -98.5v69z" />
<glyph unicode="~" horiz-adv-x="759" d="M92 518q18 135 58.5 190.5t109.5 55.5q37 0 76.5 -20.5t67 -45t60.5 -45t58 -20.5q41 0 62.5 36.5t33.5 104.5h58q-18 -135 -58.5 -190.5t-109.5 -55.5q-37 0 -76.5 20.5t-67 45t-60.5 45t-58 20.5q-41 0 -62.5 -36.5t-33.5 -104.5h-58z" />
<glyph unicode="&#xa1;" horiz-adv-x="524" d="M207 1278q0 43 29.5 72.5t72.5 29.5t73 -29.5t30 -72.5t-30 -72.5t-73 -29.5t-72.5 29.5t-29.5 72.5zM223 78q0 33 4 88.5t13 156t12 136.5q29 353 35 504h45q6 -151 35 -504q28 -334 28 -381q0 -53 -22.5 -80t-63.5 -27t-63.5 27t-22.5 80z" />
<glyph unicode="&#xa2;" horiz-adv-x="1042" d="M125 432q0 211 119 346.5t321 145.5l21 192l76 -4l-19 -188q141 -12 232.5 -88t91.5 -166q0 -48 -30.5 -82.5t-76.5 -34.5q-44 0 -72 29.5t-28 70.5q0 35 20 62.5t58 40.5q-61 83 -203 94l-70 -780h13q106 0 183 57t120 164h77q-40 -147 -146 -226.5t-251 -82.5l-16 -191 l-76 4l14 193q-154 22 -256 144.5t-102 299.5zM266 449q0 -145 62 -242t166 -127l67 770q-137 -13 -216 -122.5t-79 -278.5z" />
<glyph unicode="&#xa3;" horiz-adv-x="1161" d="M74 111q0 75 64.5 132.5t183.5 57.5q40 0 102 -12q25 74 25 141q0 66 -46 160h-288v84h245q-53 104 -53 203q0 134 57 233t149.5 148t205.5 49q155 0 241.5 -79t86.5 -181q0 -58 -31.5 -98t-81.5 -40q-47 0 -77 30t-30 73t25.5 73t69.5 41q-25 47 -78.5 74t-128.5 27 q-116 0 -197.5 -73t-81.5 -198q0 -37 9 -77.5t18 -65.5t28.5 -73t26.5 -66h389v-84h-362q10 -45 10 -82q0 -123 -61 -240q69 -24 150.5 -67t138.5 -71t96 -28q58 0 92.5 59t56.5 189l64 -6q-12 -200 -70.5 -287.5t-169.5 -87.5q-67 0 -132.5 34t-143.5 91.5t-125 81.5 q-53 -109 -104.5 -159t-125.5 -50q-60 0 -103.5 39t-43.5 105zM156 117q0 -37 21.5 -55.5t49.5 -18.5q27 0 48.5 11t39 34.5t29.5 45.5t29 56q5 11 8 17q-46 16 -86 16q-66 0 -102.5 -31.5t-36.5 -74.5z" />
<glyph unicode="&#xa5;" horiz-adv-x="1333" d="M61 1200v78h500v-78h-178l305 -551l328 551h-168v78h424v-78h-148l-354 -582h330v-79h-373v-154h373v-80h-373v-221h240v-84h-615v84h242v221h-375v80h375v154h-375v79h332l-332 582h-158z" />
<glyph unicode="&#xa7;" horiz-adv-x="1040" d="M145 -16q0 51 29.5 83.5t73.5 32.5t73 -28t29 -66q0 -33 -19 -58.5t-44 -35.5q13 -15 37 -30.5t81 -32.5t125 -17q113 0 173.5 52t60.5 126q0 68 -59 119.5t-205 99.5q-192 62 -265 126t-73 171q0 77 61 147t164 111v9q-95 42 -143.5 97t-48.5 134q0 114 98 199.5 t254 85.5q130 0 227.5 -64t97.5 -153q0 -50 -27 -81.5t-71 -31.5q-43 0 -69.5 26.5t-26.5 63.5q0 33 17 57.5t40 32.5q-12 15 -30 29.5t-62 30.5t-96 16q-113 0 -174.5 -53t-61.5 -125q0 -64 55.5 -110.5t200.5 -94.5q197 -65 269.5 -127.5t72.5 -169.5q0 -79 -60 -151 t-161 -111v-8q98 -46 145.5 -102.5t47.5 -137.5q0 -116 -95 -201.5t-260 -85.5t-273 65.5t-108 160.5zM291 549q0 -75 50.5 -120.5t182.5 -86.5l72 -23q86 31 135 88t49 125q0 74 -52 119.5t-181 85.5l-68 21q-89 -32 -138.5 -87.5t-49.5 -121.5z" />
<glyph unicode="&#xa8;" horiz-adv-x="659" d="M68 1217q0 41 27 69.5t65 28.5t65 -28.5t27 -69.5t-27 -70t-65 -29t-65 29t-27 70zM408 1217q0 41 27 69.5t65 28.5t65 -28.5t27 -69.5t-27 -70t-65 -29t-65 29t-27 70z" />
<glyph unicode="&#xa9;" horiz-adv-x="1611" d="M74 676q0 153 57 290t155 235t233 155t286 57t287 -57t233.5 -155t155 -235t57.5 -290q0 -155 -57.5 -293t-155 -236t-233.5 -155.5t-287 -57.5t-286 57.5t-233 155.5t-155 236t-57 293zM147 676q0 -187 87.5 -343t238.5 -245.5t332 -89.5q183 0 334 89.5t238 245 t87 343.5q0 186 -86.5 340.5t-238 244t-334.5 89.5q-135 0 -257 -52.5t-210 -142.5t-139.5 -215t-51.5 -264zM471 680q0 168 97 277.5t243 109.5q139 0 217 -92l23 88h59v-270h-49q-69 213 -244 213q-115 0 -179.5 -87.5t-64.5 -230.5q0 -156 67.5 -243t182.5 -87 q96 0 157.5 62.5t78.5 175.5h57q-19 -145 -99.5 -223t-209.5 -78q-149 0 -242.5 106t-93.5 279z" />
<glyph unicode="&#xaa;" horiz-adv-x="815" d="M115 803q0 68 49 117q34 34 92 54t168 40q69 12 85.5 19.5t16.5 25.5v57q0 137 -137 137q-89 0 -135 -39q39 -25 39 -67q0 -33 -21.5 -53.5t-56.5 -20.5q-33 0 -54.5 20.5t-21.5 55.5q0 66 81.5 115t182.5 49q230 0 230 -201v-348q0 -64 45 -64q34 0 61 64l43 -21 q-28 -59 -55.5 -85.5t-77.5 -26.5q-94 0 -110 112h-4q-91 -116 -222 -116q-94 0 -146 46.5t-52 129.5zM231 817q0 -58 31.5 -87.5t87.5 -29.5q67 0 121.5 45t54.5 101v137q-13 -4 -63 -14q-122 -21 -177 -55t-55 -97z" />
<glyph unicode="&#xab;" horiz-adv-x="995" d="M94 459q0 26 56 82l301 309l51 -37l-269 -354l269 -355l-51 -36l-301 309q-56 56 -56 82zM481 459q0 26 56 82l301 309l51 -37l-268 -354l268 -355l-51 -36l-301 309q-56 56 -56 82z" />
<glyph unicode="&#xad;" d="M113 430v113h524v-113h-524z" />
<glyph unicode="&#xae;" horiz-adv-x="1058" d="M76 963q0 194 129.5 322t322.5 128q194 0 324.5 -128t130.5 -322q0 -195 -130.5 -325t-324.5 -130q-192 0 -322 130t-130 325zM139 963q0 -179 107.5 -290.5t281.5 -111.5q177 0 284.5 111t107.5 291q0 178 -107 287.5t-285 109.5q-174 0 -281.5 -110t-107.5 -287z M313 735v43h74v379h-74v45h234q97 0 139.5 -35.5t42.5 -87.5q0 -40 -33.5 -72t-101.5 -40v-6q103 -16 113 -101l4 -51q1 -20 6 -27.5t16 -7.5q10 0 17.5 8t15.5 33l31 -12q-24 -78 -84 -78q-36 0 -56 22.5t-24 73.5l-4 45q-3 39 -23 57.5t-65 18.5h-80v-164h76v-43h-224z M461 983h78q50 0 78 23t28 67q0 84 -100 84h-84v-174z" />
<glyph unicode="&#xaf;" horiz-adv-x="657" d="M72 1110v109h514v-109h-514z" />
<glyph unicode="&#xb0;" horiz-adv-x="782" d="M82 1028q0 136 87 232t224 96q143 0 225 -92t82 -230q0 -136 -87 -231.5t-224 -95.5q-143 0 -225 91.5t-82 229.5zM184 1030q0 -115 59.5 -181.5t151.5 -66.5q91 0 147 65t56 185q0 115 -59.5 181.5t-151.5 66.5q-86 0 -144.5 -67.5t-58.5 -182.5z" />
<glyph unicode="&#xb1;" horiz-adv-x="1105" d="M176 66v77h754v-77h-754zM184 666v73h330v340h82v-340h330v-73h-330v-340h-82v340h-330z" />
<glyph unicode="&#xb4;" horiz-adv-x="483" d="M123 1071l104 258q31 78 55.5 108.5t59.5 30.5q26 0 43.5 -17.5t17.5 -47.5q0 -20 -11 -43.5t-22.5 -39.5t-43.5 -59q-3 -4 -5 -6.5t-5 -6.5t-5 -7l-131 -170h-57z" />
<glyph unicode="&#xb6;" horiz-adv-x="1294" d="M139 803q0 69 16 128.5t55 115.5t99.5 96t156 64t218.5 24h533v-82h-185v-1362h-90v1362h-168v-1362h-90v563q-259 0 -402 124.5t-143 328.5z" />
<glyph unicode="&#xb7;" horiz-adv-x="409" d="M102 664q0 43 30 72.5t73 29.5t72.5 -29.5t29.5 -72.5t-29.5 -73t-72.5 -30t-73 30t-30 73z" />
<glyph unicode="&#xb8;" horiz-adv-x="577" d="M33 -416l33 58q82 -50 159 -50q52 0 85.5 26.5t33.5 72.5q0 48 -41 73t-102 25q-44 0 -84 -12l-27 35l197 198h86l-154 -151l2 -4q99 0 160 -43.5t61 -116.5q0 -76 -58.5 -124t-152.5 -48q-106 0 -198 61z" />
<glyph unicode="&#xba;" horiz-adv-x="843" d="M98 963q0 152 96 251t228 99q137 0 230 -93t93 -245q0 -153 -95 -250.5t-228 -97.5q-136 0 -230 92.5t-94 243.5zM211 965q0 -135 64 -205t151 -70q86 0 146.5 73t60.5 210q0 136 -64 206t-151 70q-86 0 -146.5 -73t-60.5 -211z" />
<glyph unicode="&#xbb;" horiz-adv-x="995" d="M106 104l269 355l-269 354l52 37l301 -309q55 -55 55 -82t-55 -82l-301 -309zM494 104l268 355l-268 354l51 37l301 -309q55 -55 55 -82t-55 -82l-301 -309z" />
<glyph unicode="&#xbf;" horiz-adv-x="833" d="M33 283q0 100 46.5 177.5t160.5 180.5q82 73 118.5 147t42.5 175h58q1 -119 -28 -200t-101 -171q-92 -111 -122 -168.5t-30 -140.5q0 -100 66.5 -169t171.5 -69q79 0 139.5 36.5t87.5 88.5q-44 8 -71 37t-27 72q0 45 30 76.5t76 31.5q50 0 81.5 -36t31.5 -89 q0 -115 -106.5 -203t-251.5 -88q-173 0 -273 88.5t-100 223.5zM322 1278q0 43 29.5 72.5t72.5 29.5t72.5 -29.5t29.5 -72.5t-29.5 -72.5t-72.5 -29.5t-72.5 29.5t-29.5 72.5z" />
<glyph unicode="&#xc0;" horiz-adv-x="1376" d="M6 0v82h141l502 1255h92l467 -1255h162v-82h-526v82h209l-148 405h-502l-157 -405h188v-82h-428zM434 565h443l-211 580h-4zM487 1839q0 30 18 48t44 18q34 0 58.5 -30.5t56.5 -109.5l104 -258h-57l-131 170q-6 9 -18.5 24.5t-17.5 22.5t-14 19.5t-13 18.5t-10.5 16 t-9 16.5t-5.5 14.5t-4 15.5t-1 14.5z" />
<glyph unicode="&#xc1;" horiz-adv-x="1376" d="M6 0v82h141l502 1255h92l467 -1255h162v-82h-526v82h209l-148 405h-502l-157 -405h188v-82h-428zM434 565h443l-211 580h-4zM655 1507l105 258q32 79 56 109.5t58 30.5q26 0 44 -18t18 -48q0 -20 -11 -43.5t-22.5 -39.5t-43.5 -59q-10 -13 -15 -20l-131 -170h-58z" />
<glyph unicode="&#xc2;" horiz-adv-x="1376" d="M6 0v82h141l502 1255h92l467 -1255h162v-82h-526v82h209l-148 405h-502l-157 -405h188v-82h-428zM434 565h443l-211 580h-4zM444 1509l218 367h69l217 -367h-63l-189 222l-188 -222h-64z" />
<glyph unicode="&#xc3;" horiz-adv-x="1376" d="M6 0v82h141l502 1255h92l467 -1255h162v-82h-526v82h209l-148 405h-502l-157 -405h188v-82h-428zM406 1520q18 135 58.5 192t108.5 57q37 0 76.5 -21t67.5 -46.5t61 -46.5t58 -21q41 0 61.5 36.5t32.5 105.5h59q-18 -135 -59 -192.5t-109 -57.5q-37 0 -76.5 21t-67 46.5 t-60.5 46.5t-58 21q-41 0 -61.5 -36t-32.5 -105h-59zM434 565h443l-211 580h-4z" />
<glyph unicode="&#xc4;" horiz-adv-x="1376" d="M6 0v82h141l502 1255h92l467 -1255h162v-82h-526v82h209l-148 405h-502l-157 -405h188v-82h-428zM434 565h443l-211 580h-4zM434 1653q0 41 27 69.5t65 28.5t65 -28.5t27 -69.5t-27 -70t-65 -29t-65 29t-27 70zM774 1653q0 41 27 69.5t65 28.5t65 -28.5t27 -69.5t-27 -70 t-65 -29t-65 29t-27 70z" />
<glyph unicode="&#xc5;" horiz-adv-x="1376" d="M6 0v82h141l494 1235q-78 14 -121 71.5t-43 129.5q0 83 56.5 143.5t156.5 60.5t156.5 -60.5t56.5 -143.5q0 -70 -40.5 -126.5t-114.5 -72.5l460 -1237h162v-82h-526v82h209l-148 405h-502l-157 -405h188v-82h-428zM434 565h443l-211 580h-4zM565 1518q0 -63 34 -103.5 t91 -40.5t91 40.5t34 103.5t-34 103t-91 40t-91 -40t-34 -103z" />
<glyph unicode="&#xc6;" horiz-adv-x="1908" d="M-35 0v82h162l651 1163h-217v82h1208v-401h-65q-11 77 -18.5 121.5t-18 84.5t-20 58.5t-25.5 33t-34 18t-46 3.5h-506v-526h252q39 0 59 5t35.5 29t22.5 59.5t16 109.5h64v-488h-64q-8 76 -15 114t-22.5 62t-35.5 29.5t-60 5.5h-252v-563h506q33 0 53 3.5t38.5 20 t28.5 36.5t21.5 66.5t19 95.5t19.5 138h66v-442h-1120v82h225v426h-424l-238 -426h195v-82h-461zM514 586h379v659h-10z" />
<glyph unicode="&#xc7;" horiz-adv-x="1380" d="M111 662q0 200 80 359.5t219.5 248t310.5 88.5q246 0 391 -166l41 160h82v-488h-70q-61 201 -166 300.5t-282 99.5q-203 0 -327 -162.5t-124 -427.5q0 -289 131.5 -450t339.5 -161q177 0 291.5 119t145.5 328h92q-31 -236 -149.5 -373.5t-313.5 -163.5l-117 -114l2 -4 q99 0 160 -43.5t61 -116.5q0 -76 -58.5 -124t-152.5 -48q-106 0 -198 61l32 58q82 -50 160 -50q52 0 85.5 26.5t33.5 72.5q0 48 -41 73t-102 25q-44 0 -84 -12l-27 35l154 155q-267 0 -433.5 191t-166.5 504z" />
<glyph unicode="&#xc8;" horiz-adv-x="1310" d="M70 0v82h225v1163h-225v82h1101v-401h-65q-11 77 -18.5 121.5t-18 84.5t-20 58.5t-25.5 33t-34 18t-46 3.5h-506v-526h252q39 0 59 5t35.5 29t22.5 59.5t16 109.5h64v-488h-64q-8 76 -15 114t-22.5 62t-35.5 29.5t-60 5.5h-252v-563h506q33 0 53 3.5t38.5 20t28.5 36.5 t21.5 66.5t19 95.5t19.5 138h66v-442h-1120zM508 1839q0 30 17.5 48t43.5 18q34 0 58.5 -30.5t56.5 -109.5l104 -258h-57l-131 170q-68 89 -80 114t-12 48z" />
<glyph unicode="&#xc9;" horiz-adv-x="1310" d="M70 0v82h225v1163h-225v82h1101v-401h-65q-11 77 -18.5 121.5t-18 84.5t-20 58.5t-25.5 33t-34 18t-46 3.5h-506v-526h252q39 0 59 5t35.5 29t22.5 59.5t16 109.5h64v-488h-64q-8 76 -15 114t-22.5 62t-35.5 29.5t-60 5.5h-252v-563h506q33 0 53 3.5t38.5 20t28.5 36.5 t21.5 66.5t19 95.5t19.5 138h66v-442h-1120zM676 1507l104 258q32 79 56.5 109.5t58.5 30.5q26 0 43.5 -18t17.5 -48q0 -20 -11 -43.5t-22.5 -39.5t-43.5 -59q-10 -13 -15 -20l-131 -170h-57z" />
<glyph unicode="&#xca;" horiz-adv-x="1310" d="M70 0v82h225v1163h-225v82h1101v-401h-65q-11 77 -18.5 121.5t-18 84.5t-20 58.5t-25.5 33t-34 18t-46 3.5h-506v-526h252q39 0 59 5t35.5 29t22.5 59.5t16 109.5h64v-488h-64q-8 76 -15 114t-22.5 62t-35.5 29.5t-60 5.5h-252v-563h506q33 0 53 3.5t38.5 20t28.5 36.5 t21.5 66.5t19 95.5t19.5 138h66v-442h-1120zM465 1509l217 367h70l217 -367h-64l-188 222l-189 -222h-63z" />
<glyph unicode="&#xcb;" horiz-adv-x="1310" d="M70 0v82h225v1163h-225v82h1101v-401h-65q-11 77 -18.5 121.5t-18 84.5t-20 58.5t-25.5 33t-34 18t-46 3.5h-506v-526h252q39 0 59 5t35.5 29t22.5 59.5t16 109.5h64v-488h-64q-8 76 -15 114t-22.5 62t-35.5 29.5t-60 5.5h-252v-563h506q33 0 53 3.5t38.5 20t28.5 36.5 t21.5 66.5t19 95.5t19.5 138h66v-442h-1120zM455 1653q0 41 27 69.5t65 28.5t65 -28.5t27 -69.5t-27 -70t-65 -29t-65 29t-27 70zM795 1653q0 41 27 69.5t65 28.5t65 -28.5t27 -69.5t-27 -70t-65 -29t-65 29t-27 70z" />
<glyph unicode="&#xcc;" d="M78 0v82h225v1163h-225v82h594v-82h-226v-1163h226v-82h-594zM166 1839q0 30 17.5 48t43.5 18q34 0 58.5 -30.5t56.5 -109.5l104 -258h-57l-131 170q-68 89 -80 114q-12 26 -12 48z" />
<glyph unicode="&#xcd;" d="M78 0v82h225v1163h-225v82h594v-82h-226v-1163h226v-82h-594zM334 1507l104 258q32 79 56.5 109.5t58.5 30.5q26 0 43.5 -18t17.5 -48q0 -20 -11 -43.5t-22.5 -39.5t-43.5 -59q-10 -13 -15 -20l-131 -170h-57z" />
<glyph unicode="&#xce;" d="M78 0v82h225v1163h-225v82h594v-82h-226v-1163h226v-82h-594zM123 1509l217 367h70l217 -367h-64l-188 222l-189 -222h-63z" />
<glyph unicode="&#xcf;" d="M78 0v82h225v1163h-225v82h594v-82h-226v-1163h226v-82h-594zM113 1653q0 41 27 69.5t65 28.5t65 -28.5t27 -69.5t-27 -70t-65 -29t-65 29t-27 70zM453 1653q0 41 27 69.5t65 28.5t65 -28.5t27 -69.5t-27 -70t-65 -29t-65 29t-27 70z" />
<glyph unicode="&#xd0;" horiz-adv-x="1413" d="M70 0v82h225v573h-225v82h225v508h-225v82h530q177 0 312.5 -46t221.5 -131t129.5 -202t43.5 -264q0 -148 -42 -270.5t-125 -216t-219 -145.5t-313 -52h-538zM438 82h178q274 0 404.5 151.5t130.5 450.5q0 269 -134 415t-411 146h-168v-508h303v-82h-303v-573z" />
<glyph unicode="&#xd1;" horiz-adv-x="1529" d="M70 0v82h215v1163h-215v82h364l748 -1083h4v1001h-203v82h498v-82h-201v-1278h-78l-819 1186h-4v-1071h199v-82h-508zM487 1520q18 135 59 192t109 57q37 0 76.5 -21t67.5 -46.5t61 -46.5t58 -21q41 0 61.5 36.5t32.5 105.5h59q-18 -135 -59 -192.5t-109 -57.5 q-37 0 -76.5 21t-67 46.5t-60.5 46.5t-58 21q-41 0 -61.5 -36t-32.5 -105h-60z" />
<glyph unicode="&#xd2;" horiz-adv-x="1441" d="M111 664q0 147 48.5 276.5t131 220t194.5 143t236 52.5q128 0 240.5 -50.5t194 -140.5t128.5 -220.5t47 -282.5q0 -148 -48.5 -278t-131 -221t-194.5 -143.5t-236 -52.5q-128 0 -240.5 51.5t-194 142t-128.5 221t-47 282.5zM266 664q0 -275 124.5 -442t330.5 -167 q207 0 331 165t124 442q0 274 -124 440t-331 166q-206 0 -330.5 -166t-124.5 -438zM512 1839q0 30 17.5 48t43.5 18q34 0 58.5 -30.5t56.5 -109.5l105 -258h-58l-131 170q-68 89 -80 114t-12 48z" />
<glyph unicode="&#xd3;" horiz-adv-x="1441" d="M111 664q0 147 48.5 276.5t131 220t194.5 143t236 52.5q128 0 240.5 -50.5t194 -140.5t128.5 -220.5t47 -282.5q0 -148 -48.5 -278t-131 -221t-194.5 -143.5t-236 -52.5q-128 0 -240.5 51.5t-194 142t-128.5 221t-47 282.5zM266 664q0 -275 124.5 -442t330.5 -167 q207 0 331 165t124 442q0 274 -124 440t-331 166q-206 0 -330.5 -166t-124.5 -438zM680 1507l104 258q32 79 56.5 109.5t58.5 30.5q26 0 44 -18t18 -48q0 -7 -1 -14.5t-4 -15.5t-5.5 -14.5t-9 -16.5t-10.5 -16t-13 -18.5t-14 -19.5t-17.5 -22.5t-18.5 -24.5l-131 -170h-57z " />
<glyph unicode="&#xd4;" horiz-adv-x="1441" d="M111 664q0 147 48.5 276.5t131 220t194.5 143t236 52.5q128 0 240.5 -50.5t194 -140.5t128.5 -220.5t47 -282.5q0 -148 -48.5 -278t-131 -221t-194.5 -143.5t-236 -52.5q-128 0 -240.5 51.5t-194 142t-128.5 221t-47 282.5zM266 664q0 -275 124.5 -442t330.5 -167 q207 0 331 165t124 442q0 274 -124 440t-331 166q-206 0 -330.5 -166t-124.5 -438zM469 1509l217 367h70l217 -367h-64l-188 222l-189 -222h-63z" />
<glyph unicode="&#xd5;" horiz-adv-x="1441" d="M111 664q0 147 48.5 276.5t131 220t194.5 143t236 52.5q128 0 240.5 -50.5t194 -140.5t128.5 -220.5t47 -282.5q0 -148 -48.5 -278t-131 -221t-194.5 -143.5t-236 -52.5q-128 0 -240.5 51.5t-194 142t-128.5 221t-47 282.5zM266 664q0 -275 124.5 -442t330.5 -167 q207 0 331 165t124 442q0 274 -124 440t-331 166q-206 0 -330.5 -166t-124.5 -438zM430 1520q18 135 59 192t109 57q37 0 76.5 -21t67 -46.5t60.5 -46.5t58 -21q41 0 61.5 36.5t32.5 105.5h60q-18 -135 -59 -192.5t-109 -57.5q-37 0 -76.5 21t-67 46.5t-60.5 46.5t-58 21 q-41 0 -62 -36.5t-33 -104.5h-59z" />
<glyph unicode="&#xd6;" horiz-adv-x="1441" d="M111 664q0 147 48.5 276.5t131 220t194.5 143t236 52.5q128 0 240.5 -50.5t194 -140.5t128.5 -220.5t47 -282.5q0 -148 -48.5 -278t-131 -221t-194.5 -143.5t-236 -52.5q-128 0 -240.5 51.5t-194 142t-128.5 221t-47 282.5zM266 664q0 -275 124.5 -442t330.5 -167 q207 0 331 165t124 442q0 274 -124 440t-331 166q-206 0 -330.5 -166t-124.5 -438zM459 1653q0 41 27 69.5t65 28.5t65 -28.5t27 -69.5t-27 -70t-65 -29t-65 29t-27 70zM799 1653q0 41 27 69.5t65 28.5t65 -28.5t27 -69.5t-27 -70t-65 -29t-65 29t-27 70z" />
<glyph unicode="&#xd7;" horiz-adv-x="1036" d="M158 872l59 60l301 -309l297 305l59 -60l-296 -305l301 -309l-60 -59l-301 309l-297 -305l-59 59l297 305z" />
<glyph unicode="&#xd8;" horiz-adv-x="1441" d="M111 664q0 147 48.5 276.5t131 220t194.5 143t236 52.5q215 0 375 -135l123 172h100l-170 -224q87 -94 134.5 -223.5t47.5 -283.5q0 -148 -48.5 -278t-131 -221t-194.5 -143.5t-236 -52.5q-215 0 -375 135l-123 -172h-100l168 224q-86 94 -133 224.5t-47 285.5zM266 664 q0 -257 107 -416l649 887q-120 133 -301 133q-206 0 -330.5 -166t-124.5 -438zM418 188q121 -133 303 -133q207 0 331 165t124 442q0 249 -107 413z" />
<glyph unicode="&#xd9;" horiz-adv-x="1474" d="M49 1245v82h549v-82h-211v-817q0 -189 97 -274.5t290 -85.5q82 0 155.5 26t119.5 70q52 52 76 125.5t24 185.5v770h-203v82h479v-82h-182v-811q0 -211 -130.5 -339t-379.5 -128q-243 0 -366 117.5t-123 316.5v844h-195zM559 1839q0 30 18 48t44 18q34 0 58 -30.5 t56 -109.5l105 -258h-58l-131 170q-68 89 -80 114t-12 48z" />
<glyph unicode="&#xda;" horiz-adv-x="1474" d="M49 1245v82h549v-82h-211v-817q0 -189 97 -274.5t290 -85.5q82 0 155.5 26t119.5 70q52 52 76 125.5t24 185.5v770h-203v82h479v-82h-182v-811q0 -211 -130.5 -339t-379.5 -128q-243 0 -366 117.5t-123 316.5v844h-195zM727 1507l104 258q32 79 56.5 109.5t58.5 30.5 q26 0 44 -18t18 -48q0 -7 -1 -14.5t-4 -15.5t-5.5 -14.5t-9 -16.5t-10.5 -16t-13 -18.5t-14 -19.5t-17.5 -22.5t-18.5 -24.5l-131 -170h-57z" />
<glyph unicode="&#xdb;" horiz-adv-x="1474" d="M49 1245v82h549v-82h-211v-817q0 -189 97 -274.5t290 -85.5q82 0 155.5 26t119.5 70q52 52 76 125.5t24 185.5v770h-203v82h479v-82h-182v-811q0 -211 -130.5 -339t-379.5 -128q-243 0 -366 117.5t-123 316.5v844h-195zM516 1509l217 367h70l217 -367h-64l-188 222 l-188 -222h-64z" />
<glyph unicode="&#xdc;" horiz-adv-x="1474" d="M49 1245v82h549v-82h-211v-817q0 -189 97 -274.5t290 -85.5q82 0 155.5 26t119.5 70q52 52 76 125.5t24 185.5v770h-203v82h479v-82h-182v-811q0 -211 -130.5 -339t-379.5 -128q-243 0 -366 117.5t-123 316.5v844h-195zM506 1653q0 41 27 69.5t65 28.5t65 -28.5t27 -69.5 t-27 -70t-65 -29t-65 29t-27 70zM846 1653q0 41 27 69.5t65 28.5t65 -28.5t27 -69.5t-27 -70t-65 -29t-65 29t-27 70z" />
<glyph unicode="&#xdd;" horiz-adv-x="1286" d="M6 1245v82h526v-82h-184l326 -581l348 581h-172v82h436v-82h-158l-417 -682v-481h207v-82h-558v82h207v479l-393 684h-168zM635 1507l104 258q32 79 56.5 109.5t58.5 30.5q26 0 43.5 -18t17.5 -48q0 -20 -11 -43.5t-22.5 -39.5t-43.5 -59q-10 -13 -15 -20l-131 -170h-57z " />
<glyph unicode="&#xde;" horiz-adv-x="1228" d="M70 0v82h225v1163h-225v82h594v-82h-226v-168h207q115 0 204 -20t145.5 -53.5t93 -82t51 -100t14.5 -112.5q0 -172 -134 -281t-374 -109h-207v-237h226v-82h-594zM438 401h209q173 0 261.5 85t88.5 227q0 282 -344 282h-215v-594z" />
<glyph unicode="&#xdf;" horiz-adv-x="1087" d="M41 825v82h188v72q0 120 30 208t83 137t115 72t135 23q129 0 225 -84.5t96 -201.5q0 -77 -40.5 -138t-127.5 -125q-65 -47 -86.5 -75.5t-21.5 -57.5q0 -37 33.5 -67t152.5 -101q59 -35 94 -61t68 -61.5t47.5 -79t14.5 -99.5q0 -72 -33 -135.5t-105 -107t-170 -43.5 q-65 0 -124 20t-99.5 64t-40.5 102q0 48 28.5 77t69.5 29q43 0 70 -26t27 -62q0 -60 -49 -90q42 -39 124 -39q95 0 145 52t50 118q0 51 -35 103t-139 116q-139 85 -187.5 134.5t-48.5 128.5q0 13 1.5 24t6.5 23.5t8.5 20.5t13.5 21.5t14.5 20t19.5 22t20.5 21l24.5 24.5 l25 25q71 69 96.5 119.5t25.5 114.5q0 87 -55.5 142.5t-142.5 55.5q-112 0 -170 -82t-58 -262v-999h-286v82h155v743h-188z" />
<glyph unicode="&#xe0;" horiz-adv-x="976" d="M98 219q0 98 60 158q49 49 125.5 76t224.5 53q99 18 123 27.5t24 33.5v86q0 199 -194 199q-60 0 -112 -17.5t-81 -46.5q56 -32 56 -90q0 -42 -28 -70t-69 -28q-43 0 -69.5 28t-26.5 77q0 88 105 152.5t239 64.5q311 0 311 -271v-485q0 -54 16.5 -73t45.5 -19 q28 0 48.5 20t41.5 66l51 -25q-37 -80 -72.5 -113.5t-99.5 -33.5q-141 0 -147 172h-4q-54 -80 -136 -128t-176 -48q-122 0 -189 63t-67 172zM242 240q0 -83 43.5 -125.5t124.5 -42.5q93 0 169 63t76 141v199q-12 -4 -106 -20q-166 -27 -236.5 -75.5t-70.5 -139.5zM283 1403 q0 30 17.5 47.5t43.5 17.5q35 0 59.5 -30.5t55.5 -108.5l104 -258h-57l-131 170q-68 89 -80 114t-12 48z" />
<glyph unicode="&#xe1;" horiz-adv-x="976" d="M98 219q0 98 60 158q49 49 125.5 76t224.5 53q99 18 123 27.5t24 33.5v86q0 199 -194 199q-60 0 -112 -17.5t-81 -46.5q56 -32 56 -90q0 -42 -28 -70t-69 -28q-43 0 -69.5 28t-26.5 77q0 88 105 152.5t239 64.5q311 0 311 -271v-485q0 -54 16.5 -73t45.5 -19 q28 0 48.5 20t41.5 66l51 -25q-37 -80 -72.5 -113.5t-99.5 -33.5q-141 0 -147 172h-4q-54 -80 -136 -128t-176 -48q-122 0 -189 63t-67 172zM242 240q0 -83 43.5 -125.5t124.5 -42.5q93 0 169 63t76 141v199q-12 -4 -106 -20q-166 -27 -236.5 -75.5t-70.5 -139.5zM451 1071 l104 258q31 78 55.5 108.5t59.5 30.5q26 0 43.5 -17.5t17.5 -47.5q0 -20 -11 -43.5t-22.5 -39.5t-43.5 -59q-10 -13 -15 -20l-131 -170h-57z" />
<glyph unicode="&#xe2;" horiz-adv-x="976" d="M98 219q0 98 60 158q49 49 125.5 76t224.5 53q99 18 123 27.5t24 33.5v86q0 199 -194 199q-60 0 -112 -17.5t-81 -46.5q56 -32 56 -90q0 -42 -28 -70t-69 -28q-43 0 -69.5 28t-26.5 77q0 88 105 152.5t239 64.5q311 0 311 -271v-485q0 -54 16.5 -73t45.5 -19 q28 0 48.5 20t41.5 66l51 -25q-37 -80 -72.5 -113.5t-99.5 -33.5q-141 0 -147 172h-4q-54 -80 -136 -128t-176 -48q-122 0 -189 63t-67 172zM240 1073l217 367h69l217 -367h-63l-188 221l-189 -221h-63zM242 240q0 -83 43.5 -125.5t124.5 -42.5q93 0 169 63t76 141v199 q-12 -4 -106 -20q-166 -27 -236.5 -75.5t-70.5 -139.5z" />
<glyph unicode="&#xe3;" horiz-adv-x="976" d="M98 219q0 98 60 158q49 49 125.5 76t224.5 53q99 18 123 27.5t24 33.5v86q0 199 -194 199q-60 0 -112 -17.5t-81 -46.5q56 -32 56 -90q0 -42 -28 -70t-69 -28q-43 0 -69.5 28t-26.5 77q0 88 105 152.5t239 64.5q311 0 311 -271v-485q0 -54 16.5 -73t45.5 -19 q28 0 48.5 20t41.5 66l51 -25q-37 -80 -72.5 -113.5t-99.5 -33.5q-141 0 -147 172h-4q-54 -80 -136 -128t-176 -48q-122 0 -189 63t-67 172zM201 1083q18 135 59 192.5t109 57.5q37 0 76.5 -21t67 -46.5t60.5 -46.5t58 -21q41 0 61.5 36t32.5 105h59q-18 -135 -59 -192 t-109 -57q-37 0 -76.5 21t-67 46.5t-60.5 46.5t-58 21q-41 0 -61.5 -36.5t-32.5 -105.5h-59zM242 240q0 -83 43.5 -125.5t124.5 -42.5q93 0 169 63t76 141v199q-12 -4 -106 -20q-166 -27 -236.5 -75.5t-70.5 -139.5z" />
<glyph unicode="&#xe4;" horiz-adv-x="976" d="M98 219q0 98 60 158q49 49 125.5 76t224.5 53q99 18 123 27.5t24 33.5v86q0 199 -194 199q-60 0 -112 -17.5t-81 -46.5q56 -32 56 -90q0 -42 -28 -70t-69 -28q-43 0 -69.5 28t-26.5 77q0 88 105 152.5t239 64.5q311 0 311 -271v-485q0 -54 16.5 -73t45.5 -19 q28 0 48.5 20t41.5 66l51 -25q-37 -80 -72.5 -113.5t-99.5 -33.5q-141 0 -147 172h-4q-54 -80 -136 -128t-176 -48q-122 0 -189 63t-67 172zM229 1217q0 41 27.5 69.5t65.5 28.5t65 -28.5t27 -69.5t-27 -70t-65 -29t-65.5 29t-27.5 70zM242 240q0 -83 43.5 -125.5 t124.5 -42.5q93 0 169 63t76 141v199q-12 -4 -106 -20q-166 -27 -236.5 -75.5t-70.5 -139.5zM569 1217q0 41 27.5 69.5t65.5 28.5t65 -28.5t27 -69.5t-27 -70t-65 -29t-65.5 29t-27.5 70z" />
<glyph unicode="&#xe5;" horiz-adv-x="976" d="M98 219q0 98 60 158q49 49 125.5 76t224.5 53q99 18 123 27.5t24 33.5v86q0 199 -194 199q-60 0 -112 -17.5t-81 -46.5q56 -32 56 -90q0 -42 -28 -70t-69 -28q-43 0 -69.5 28t-26.5 77q0 88 105 152.5t239 64.5q311 0 311 -271v-485q0 -54 16.5 -73t45.5 -19 q28 0 48.5 20t41.5 66l51 -25q-37 -80 -72.5 -113.5t-99.5 -33.5q-141 0 -147 172h-4q-54 -80 -136 -128t-176 -48q-122 0 -189 63t-67 172zM242 240q0 -83 43.5 -125.5t124.5 -42.5q93 0 169 63t76 141v199q-12 -4 -106 -20q-166 -27 -236.5 -75.5t-70.5 -139.5zM276 1264 q0 82 58 143t158 61t157.5 -61t57.5 -143q0 -83 -57.5 -144t-157.5 -61t-158 61.5t-58 143.5zM369 1264q0 -63 33 -103.5t90 -40.5t89.5 40.5t32.5 103.5t-32.5 103t-89.5 40t-90 -40t-33 -103z" />
<glyph unicode="&#xe6;" horiz-adv-x="1505" d="M98 219q0 98 60 158q49 49 125.5 76t224.5 53q99 18 123 27.5t24 33.5v86q0 199 -194 199q-60 0 -112 -17.5t-81 -46.5q56 -32 56 -90q0 -42 -28 -70t-69 -28q-43 0 -69.5 28t-26.5 77q0 88 105 152.5t239 64.5q223 0 285 -140q122 144 297 144q93 0 166.5 -40t117 -108 t65 -152t19.5 -177h-639q1 -179 82.5 -278t208.5 -99q93 0 160 42t106 144h76q-43 -134 -136 -205t-226 -71q-122 0 -214.5 60.5t-137.5 156.5q-55 -105 -150 -160t-201 -55q-122 0 -189 63t-67 172zM242 240q0 -83 43.5 -125.5t124.5 -42.5q93 0 169 63t76 141v199 q-12 -4 -106 -20q-166 -27 -236.5 -75.5t-70.5 -139.5zM791 530h495q-11 156 -70.5 239t-162.5 83t-175 -86.5t-87 -235.5z" />
<glyph unicode="&#xe7;" horiz-adv-x="950" d="M84 432q0 220 122 357t326 137q95 0 175 -41t122.5 -99.5t42.5 -117.5q0 -52 -30 -87.5t-76 -35.5q-44 0 -72 29.5t-28 70.5q0 77 77 103q-75 104 -215 104q-138 0 -220.5 -111.5t-82.5 -291.5q0 -174 80.5 -276.5t214.5 -102.5q104 0 172.5 55.5t112.5 165.5h78 q-33 -122 -105 -197t-176 -100l-137 -135l2 -4q99 0 160 -43.5t61 -116.5q0 -76 -58.5 -124t-152.5 -48q-106 0 -198 61l32 58q82 -50 160 -50q52 0 85.5 26.5t33.5 72.5q0 48 -41 73t-103 25q-44 0 -84 -12l-26 35l168 170h-12q-175 0 -291.5 127t-116.5 323z" />
<glyph unicode="&#xe8;" horiz-adv-x="952" d="M84 444q0 103 33.5 193.5t90.5 153.5t134 99t162 36q93 0 166.5 -40t117 -108t65 -152t19.5 -177h-647q1 -180 83.5 -278.5t215.5 -98.5q93 0 160.5 42t106.5 144h75q-43 -134 -136 -205t-226 -71q-189 0 -304.5 127.5t-115.5 334.5zM229 530h504q-11 156 -70.5 239 t-162.5 83q-108 0 -182 -86.5t-89 -235.5zM303 1403q0 30 18 47.5t44 17.5q34 0 58 -30t56 -109l105 -258h-58l-131 170q-68 89 -80 114t-12 48z" />
<glyph unicode="&#xe9;" horiz-adv-x="952" d="M84 444q0 103 33.5 193.5t90.5 153.5t134 99t162 36q93 0 166.5 -40t117 -108t65 -152t19.5 -177h-647q1 -180 83.5 -278.5t215.5 -98.5q93 0 160.5 42t106.5 144h75q-43 -134 -136 -205t-226 -71q-189 0 -304.5 127.5t-115.5 334.5zM229 530h504q-11 156 -70.5 239 t-162.5 83q-108 0 -182 -86.5t-89 -235.5zM471 1071l104 258q31 78 55.5 108.5t59.5 30.5q26 0 44 -17.5t18 -47.5q0 -7 -1 -14.5t-4 -15.5t-5.5 -14.5t-9 -16.5t-10.5 -16t-13 -18.5t-14 -19.5t-17.5 -22.5t-18.5 -24.5l-131 -170h-57z" />
<glyph unicode="&#xea;" horiz-adv-x="952" d="M84 444q0 103 33.5 193.5t90.5 153.5t134 99t162 36q93 0 166.5 -40t117 -108t65 -152t19.5 -177h-647q1 -180 83.5 -278.5t215.5 -98.5q93 0 160.5 42t106.5 144h75q-43 -134 -136 -205t-226 -71q-189 0 -304.5 127.5t-115.5 334.5zM229 530h504q-11 156 -70.5 239 t-162.5 83q-108 0 -182 -86.5t-89 -235.5zM260 1073l217 367h70l217 -367h-64l-188 221l-188 -221h-64z" />
<glyph unicode="&#xeb;" horiz-adv-x="952" d="M84 444q0 103 33.5 193.5t90.5 153.5t134 99t162 36q93 0 166.5 -40t117 -108t65 -152t19.5 -177h-647q1 -180 83.5 -278.5t215.5 -98.5q93 0 160.5 42t106.5 144h75q-43 -134 -136 -205t-226 -71q-189 0 -304.5 127.5t-115.5 334.5zM229 530h504q-11 156 -70.5 239 t-162.5 83q-108 0 -182 -86.5t-89 -235.5zM250 1217q0 41 27 69.5t65 28.5t65 -28.5t27 -69.5t-27 -70t-65 -29t-65 29t-27 70zM590 1217q0 41 27 69.5t65 28.5t65 -28.5t27 -69.5t-27 -70t-65 -29t-65 29t-27 70z" />
<glyph unicode="&#xec;" horiz-adv-x="587" d="M68 0v82h176v743h-176v82h307v-825h176v-82h-483zM78 1403q0 30 17.5 47.5t43.5 17.5q35 0 59.5 -30.5t55.5 -108.5l104 -258h-57l-131 170q-68 89 -80 114t-12 48z" />
<glyph unicode="&#xed;" horiz-adv-x="587" d="M68 0v82h176v743h-176v82h307v-825h176v-82h-483zM246 1071l104 258q31 78 55.5 108.5t59.5 30.5q26 0 43.5 -17.5t17.5 -47.5q0 -20 -11 -43.5t-22.5 -39.5t-43.5 -59q-3 -4 -5 -6.5t-5 -6.5t-5 -7l-131 -170h-57z" />
<glyph unicode="&#xee;" horiz-adv-x="587" d="M35 1073l217 367h70l217 -367h-64l-188 221l-189 -221h-63zM68 0v82h176v743h-176v82h307v-825h176v-82h-483z" />
<glyph unicode="&#xef;" horiz-adv-x="587" d="M25 1217q0 41 27 69.5t65 28.5t65 -28.5t27 -69.5t-27 -70t-65 -29t-65 29t-27 70zM68 0v82h176v743h-176v82h307v-825h176v-82h-483zM365 1217q0 41 27 69.5t65 28.5t65 -28.5t27 -69.5t-27 -70t-65 -29t-65 29t-27 70z" />
<glyph unicode="&#xf0;" horiz-adv-x="1032" d="M84 438q0 208 119.5 348t298.5 140q94 0 164.5 -46.5t109.5 -105.5q-35 171 -174 354l-229 -100l-31 68l213 92q-65 76 -147 158l108 18q90 -86 133 -133l223 96l29 -65l-201 -91q236 -290 236 -600q0 -272 -120.5 -430.5t-317.5 -158.5q-178 0 -296 124t-118 332z M225 451q0 -193 84 -294.5t203 -101.5q121 0 202 102t81 298q0 192 -86.5 294.5t-204.5 102.5q-117 0 -198 -104t-81 -297z" />
<glyph unicode="&#xf1;" horiz-adv-x="1138" d="M70 0v82h155v743h-155v82h282v-235q146 254 348 254q121 0 185.5 -73.5t64.5 -217.5v-553h154v-82h-428v82h143v479q0 158 -53 211q-42 45 -123 45q-73 0 -141.5 -49.5t-107 -118t-38.5 -127.5v-440h144v-82h-430zM297 1083q18 135 59 192.5t109 57.5q37 0 76.5 -21 t67 -46.5t60.5 -46.5t58 -21q41 0 61.5 36t32.5 105h60q-18 -135 -59 -192t-109 -57q-37 0 -76.5 21t-67 46.5t-60.5 46.5t-58 21q-41 0 -62 -36.5t-33 -105.5h-59z" />
<glyph unicode="&#xf2;" horiz-adv-x="1019" d="M84 444q0 210 125 346t301 136q183 0 304.5 -128t121.5 -337q0 -210 -125 -344.5t-301 -134.5q-184 0 -305 127t-121 335zM225 451q0 -192 86.5 -294t204.5 -102q117 0 198 103.5t81 296.5q0 192 -86.5 294.5t-204.5 102.5q-117 0 -198 -104t-81 -297zM301 1403 q0 30 17.5 47.5t43.5 17.5q35 0 59.5 -30.5t55.5 -108.5l105 -258h-58l-131 170q-68 89 -80 114t-12 48z" />
<glyph unicode="&#xf3;" horiz-adv-x="1019" d="M84 444q0 210 125 346t301 136q183 0 304.5 -128t121.5 -337q0 -210 -125 -344.5t-301 -134.5q-184 0 -305 127t-121 335zM225 451q0 -192 86.5 -294t204.5 -102q117 0 198 103.5t81 296.5q0 192 -86.5 294.5t-204.5 102.5q-117 0 -198 -104t-81 -297zM469 1071l104 258 q31 78 55.5 108.5t59.5 30.5q26 0 44 -17.5t18 -47.5q0 -7 -1 -14.5t-4 -15.5t-5.5 -14.5t-9 -16.5t-10.5 -16t-13 -18.5t-14 -19.5t-17.5 -22.5t-18.5 -24.5l-131 -170h-57z" />
<glyph unicode="&#xf4;" horiz-adv-x="1019" d="M84 444q0 210 125 346t301 136q183 0 304.5 -128t121.5 -337q0 -210 -125 -344.5t-301 -134.5q-184 0 -305 127t-121 335zM225 451q0 -192 86.5 -294t204.5 -102q117 0 198 103.5t81 296.5q0 192 -86.5 294.5t-204.5 102.5q-117 0 -198 -104t-81 -297zM258 1073l217 367 h70l217 -367h-64l-188 221l-188 -221h-64z" />
<glyph unicode="&#xf5;" horiz-adv-x="1019" d="M84 444q0 210 125 346t301 136q183 0 304.5 -128t121.5 -337q0 -210 -125 -344.5t-301 -134.5q-184 0 -305 127t-121 335zM219 1083q18 135 59 192.5t109 57.5q37 0 76.5 -21t67 -46.5t60.5 -46.5t58 -21q41 0 61.5 36t32.5 105h60q-18 -135 -59 -192t-109 -57 q-37 0 -76.5 21t-67 46.5t-60.5 46.5t-58 21q-41 0 -61.5 -36.5t-32.5 -105.5h-60zM225 451q0 -192 86.5 -294t204.5 -102q117 0 198 103.5t81 296.5q0 192 -86.5 294.5t-204.5 102.5q-117 0 -198 -104t-81 -297z" />
<glyph unicode="&#xf6;" horiz-adv-x="1019" d="M84 444q0 210 125 346t301 136q183 0 304.5 -128t121.5 -337q0 -210 -125 -344.5t-301 -134.5q-184 0 -305 127t-121 335zM225 451q0 -192 86.5 -294t204.5 -102q117 0 198 103.5t81 296.5q0 192 -86.5 294.5t-204.5 102.5q-117 0 -198 -104t-81 -297zM248 1217 q0 41 27 69.5t65 28.5t65 -28.5t27 -69.5t-27 -70t-65 -29t-65 29t-27 70zM588 1217q0 41 27 69.5t65 28.5t65 -28.5t27 -69.5t-27 -70t-65 -29t-65 29t-27 70z" />
<glyph unicode="&#xf7;" horiz-adv-x="1036" d="M102 524v78h832v-78h-832zM422 252q0 41 27.5 69.5t68.5 28.5t68.5 -28.5t27.5 -69.5t-27.5 -69.5t-68.5 -28.5t-68.5 28.5t-27.5 69.5zM422 874q0 42 27.5 70.5t68.5 28.5t68.5 -28.5t27.5 -70.5q0 -41 -27.5 -69.5t-68.5 -28.5t-68.5 28.5t-27.5 69.5z" />
<glyph unicode="&#xf8;" horiz-adv-x="1019" d="M84 444q0 210 125 346t301 136q140 0 250 -80l86 117h86l-121 -162q125 -131 125 -340q0 -210 -125 -344.5t-301 -134.5q-144 0 -252 79l-84 -116h-86l119 161q-123 129 -123 338zM225 451q0 -148 58 -252l413 565q-82 88 -192 88q-117 0 -198 -104t-81 -297zM324 141 q77 -86 192 -86q117 0 198 103.5t81 296.5q0 148 -58 252z" />
<glyph unicode="&#xf9;" horiz-adv-x="1105" d="M35 825v82h284v-561q0 -161 54 -215q39 -41 121 -41q72 0 138.5 49.5t104 117.5t37.5 128v440h-162v82h293v-825h156v-82h-283v236q-143 -254 -342 -254q-119 0 -183.5 73.5t-64.5 216.5v553h-153zM340 1403q0 30 17.5 47.5t43.5 17.5q35 0 59.5 -30.5t55.5 -108.5 l105 -258h-58l-131 170q-68 89 -80 114t-12 48z" />
<glyph unicode="&#xfa;" horiz-adv-x="1105" d="M35 825v82h284v-561q0 -161 54 -215q39 -41 121 -41q72 0 138.5 49.5t104 117.5t37.5 128v440h-162v82h293v-825h156v-82h-283v236q-143 -254 -342 -254q-119 0 -183.5 73.5t-64.5 216.5v553h-153zM508 1071l104 258q31 78 55.5 108.5t59.5 30.5q26 0 43.5 -17.5 t17.5 -47.5q0 -20 -11 -43.5t-22.5 -39.5t-43.5 -59q-10 -13 -15 -20l-131 -170h-57z" />
<glyph unicode="&#xfb;" horiz-adv-x="1105" d="M35 825v82h284v-561q0 -161 54 -215q39 -41 121 -41q72 0 138.5 49.5t104 117.5t37.5 128v440h-162v82h293v-825h156v-82h-283v236q-143 -254 -342 -254q-119 0 -183.5 73.5t-64.5 216.5v553h-153zM297 1073l217 367h70l217 -367h-64l-188 221l-189 -221h-63z" />
<glyph unicode="&#xfc;" horiz-adv-x="1105" d="M35 825v82h284v-561q0 -161 54 -215q39 -41 121 -41q72 0 138.5 49.5t104 117.5t37.5 128v440h-162v82h293v-825h156v-82h-283v236q-143 -254 -342 -254q-119 0 -183.5 73.5t-64.5 216.5v553h-153zM287 1217q0 41 27 69.5t65 28.5t65 -28.5t27 -69.5t-27 -70t-65 -29 t-65 29t-27 70zM627 1217q0 41 27 69.5t65 28.5t65 -28.5t27 -69.5t-27 -70t-65 -29t-65 29t-27 70z" />
<glyph unicode="&#xfd;" horiz-adv-x="974" d="M0 825v82h430v-82h-160l252 -669l256 669h-147v82h344v-82h-105l-309 -778q-82 -206 -170 -290.5t-194 -84.5q-77 0 -120.5 37t-43.5 92q0 48 29.5 80.5t74.5 32.5q40 0 66 -25t26 -65q0 -45 -24 -76q62 -5 124 49t122 201l-328 827h-123zM481 1071l105 258q32 79 56 109 t58 30q26 0 44 -17.5t18 -47.5q0 -20 -11 -43.5t-22.5 -39.5t-43.5 -59q-10 -13 -15 -20l-131 -170h-58z" />
<glyph unicode="&#xfe;" horiz-adv-x="1038" d="M16 -219h156v1544h-156v82h287v-705q55 109 135.5 166.5t175.5 57.5q125 0 213 -88q60 -60 91.5 -156t31.5 -211q0 -114 -36 -213t-99 -162q-96 -96 -229 -96q-97 0 -171 55.5t-112 141.5v-416h201v-82h-488v82zM299 444q0 -155 75 -254.5t189 -99.5q109 0 177.5 98.5 t68.5 282.5q0 188 -68 276.5t-168 88.5q-116 0 -195 -113t-79 -279z" />
<glyph unicode="&#xff;" horiz-adv-x="974" d="M0 825v82h430v-82h-160l252 -669l256 669h-147v82h344v-82h-105l-309 -778q-82 -206 -170 -290.5t-194 -84.5q-77 0 -120.5 37t-43.5 92q0 48 29.5 80.5t74.5 32.5q40 0 66 -25t26 -65q0 -45 -24 -76q62 -5 124 49t122 201l-328 827h-123zM260 1217q0 41 27 69.5t65 28.5 t65 -28.5t27 -69.5t-27 -70t-65 -29t-65 29t-27 70zM600 1217q0 41 27 69.5t65 28.5t65 -28.5t27 -69.5t-27 -70t-65 -29t-65 29t-27 70z" />
<glyph unicode="&#x152;" horiz-adv-x="1990" d="M106 643q0 148 42 270.5t125 216t219 145.5t313 52h1046v-401h-65q-11 77 -18.5 121.5t-18 84.5t-20 58.5t-25.5 33t-34 18t-46 3.5h-506v-526h252q39 0 59 5t35.5 29t22.5 59.5t16 109.5h64v-488h-64q-8 76 -15 114t-22.5 62t-35.5 29.5t-60 5.5h-252v-563h506 q33 0 53 3.5t38.5 20t28.5 36.5t21.5 66.5t19 95.5t19.5 138h66v-442h-1057q-177 0 -312.5 46t-221.5 131t-129.5 202t-43.5 264zM262 643q0 -269 134 -415t411 -146h168v1163h-178q-274 0 -404.5 -151.5t-130.5 -450.5z" />
<glyph unicode="&#x153;" horiz-adv-x="1658" d="M84 444q0 210 125 346t301 136q115 0 208.5 -56.5t147.5 -158.5q56 100 147 157.5t197 57.5q93 0 166.5 -40t117.5 -108t65.5 -152t19.5 -177h-647q1 -180 83.5 -278.5t215.5 -98.5q93 0 160 42t106 144h76q-43 -134 -136.5 -205t-226.5 -71q-120 0 -211 57t-143 160 q-56 -102 -147.5 -159.5t-198.5 -57.5q-184 0 -305 127t-121 335zM225 451q0 -192 86.5 -294t204.5 -102q117 0 198 103.5t81 296.5q0 192 -86.5 294.5t-204.5 102.5q-117 0 -198 -104t-81 -297zM936 530h504q-11 155 -71 238.5t-163 83.5q-108 0 -181.5 -86.5t-88.5 -235.5 z" />
<glyph unicode="&#x178;" horiz-adv-x="1286" d="M6 1245v82h526v-82h-184l326 -581l348 581h-172v82h436v-82h-158l-417 -682v-481h207v-82h-558v82h207v479l-393 684h-168zM414 1653q0 41 27 69.5t65 28.5t65 -28.5t27 -69.5t-27 -70t-65 -29t-65 29t-27 70zM754 1653q0 41 27 69.5t65 28.5t65 -28.5t27 -69.5t-27 -70 t-65 -29t-65 29t-27 70z" />
<glyph unicode="&#x2c6;" horiz-adv-x="612" d="M55 1073l217 367h70l217 -367h-63l-189 221l-188 -221h-64z" />
<glyph unicode="&#x2dc;" horiz-adv-x="677" d="M47 1083q18 135 59 192.5t109 57.5q37 0 76.5 -21t67 -46.5t60.5 -46.5t58 -21q41 0 61.5 36t32.5 105h60q-18 -135 -59 -192t-109 -57q-37 0 -76.5 21t-67 46.5t-60.5 46.5t-58 21q-41 0 -62 -36.5t-33 -105.5h-59z" />
<glyph unicode="&#x2000;" horiz-adv-x="952" />
<glyph unicode="&#x2001;" horiz-adv-x="1905" />
<glyph unicode="&#x2002;" horiz-adv-x="952" />
<glyph unicode="&#x2003;" horiz-adv-x="1905" />
<glyph unicode="&#x2004;" horiz-adv-x="635" />
<glyph unicode="&#x2005;" horiz-adv-x="476" />
<glyph unicode="&#x2006;" horiz-adv-x="317" />
<glyph unicode="&#x2007;" horiz-adv-x="317" />
<glyph unicode="&#x2008;" horiz-adv-x="238" />
<glyph unicode="&#x2009;" horiz-adv-x="381" />
<glyph unicode="&#x200a;" horiz-adv-x="105" />
<glyph unicode="&#x2010;" d="M113 430v113h524v-113h-524z" />
<glyph unicode="&#x2011;" d="M113 430v113h524v-113h-524z" />
<glyph unicode="&#x2012;" d="M113 430v113h524v-113h-524z" />
<glyph unicode="&#x2013;" horiz-adv-x="1105" d="M113 432v96h880v-96h-880z" />
<glyph unicode="&#x2014;" horiz-adv-x="1617" d="M113 432v96h1392v-96h-1392z" />
<glyph unicode="&#x2018;" horiz-adv-x="409" d="M100 1044q0 201 248 312l27 -56q-101 -50 -145 -99t-54 -109l4 -5q22 11 41 11q37 0 61.5 -26t24.5 -64q0 -40 -27.5 -69.5t-68.5 -29.5q-53 0 -82 37.5t-29 97.5z" />
<glyph unicode="&#x2019;" horiz-adv-x="409" d="M35 965q101 50 144.5 99t53.5 110l-4 4q-22 -11 -41 -11q-37 0 -61.5 26t-24.5 64q0 40 27.5 69.5t69.5 29.5q53 0 81.5 -37.5t28.5 -97.5q0 -201 -248 -312z" />
<glyph unicode="&#x201a;" horiz-adv-x="409" d="M35 -215q101 50 144.5 99t53.5 110l-4 4q-20 -10 -41 -10q-37 0 -61.5 26t-24.5 64q0 39 27.5 68.5t69.5 29.5q53 0 81.5 -37.5t28.5 -97.5q0 -200 -248 -311z" />
<glyph unicode="&#x201c;" horiz-adv-x="745" d="M100 1044q0 201 248 312l27 -56q-101 -50 -145 -99t-54 -109l4 -5q22 11 41 11q37 0 61.5 -26t24.5 -64q0 -40 -27.5 -69.5t-68.5 -29.5q-53 0 -82 37.5t-29 97.5zM436 1044q0 201 248 312l27 -56q-101 -50 -145 -99t-54 -109l4 -5q22 11 41 11q37 0 61.5 -26t24.5 -64 q0 -40 -27.5 -69.5t-68.5 -29.5q-53 0 -82 37.5t-29 97.5z" />
<glyph unicode="&#x201d;" horiz-adv-x="745" d="M35 965q101 50 144.5 99t53.5 110l-4 4q-22 -11 -41 -11q-37 0 -61.5 26t-24.5 64q0 40 27.5 69.5t69.5 29.5q53 0 81.5 -37.5t28.5 -97.5q0 -201 -248 -312zM371 965q101 50 144.5 99t53.5 110l-4 4q-22 -11 -41 -11q-37 0 -61.5 26t-24.5 64q0 40 27.5 69.5t69.5 29.5 q53 0 81.5 -37.5t28.5 -97.5q0 -201 -248 -312z" />
<glyph unicode="&#x201e;" horiz-adv-x="745" d="M35 -215q101 50 144.5 99t53.5 110l-4 4q-20 -10 -41 -10q-37 0 -61.5 26t-24.5 64q0 39 27.5 68.5t69.5 29.5q53 0 81.5 -37.5t28.5 -97.5q0 -200 -248 -311zM371 -215q101 50 144.5 99t53.5 110l-4 4q-20 -10 -41 -10q-37 0 -61.5 26t-24.5 64q0 39 27.5 68.5 t69.5 29.5q53 0 81.5 -37.5t28.5 -97.5q0 -200 -248 -311z" />
<glyph unicode="&#x2022;" horiz-adv-x="892" d="M229 641q0 94 63 158.5t154 64.5t154.5 -64.5t63.5 -158.5t-63.5 -158.5t-154.5 -64.5t-154 64.5t-63 158.5z" />
<glyph unicode="&#x2026;" horiz-adv-x="1228" d="M102 74q0 43 30 72.5t73 29.5t72.5 -29.5t29.5 -72.5t-29.5 -73t-72.5 -30t-73 30t-30 73zM512 74q0 43 29.5 72.5t72.5 29.5t73 -29.5t30 -72.5t-30 -73t-73 -30t-72.5 30t-29.5 73zM922 74q0 43 29.5 72.5t72.5 29.5t72.5 -29.5t29.5 -72.5t-29.5 -73t-72.5 -30 t-72.5 30t-29.5 73z" />
<glyph unicode="&#x202f;" horiz-adv-x="381" />
<glyph unicode="&#x2039;" horiz-adv-x="608" d="M94 459q0 26 56 82l301 309l51 -37l-269 -354l269 -355l-51 -36l-301 309q-56 56 -56 82z" />
<glyph unicode="&#x203a;" horiz-adv-x="608" d="M106 104l269 355l-269 354l52 37l301 -309q55 -55 55 -82t-55 -82l-301 -309z" />
<glyph unicode="&#x205f;" horiz-adv-x="476" />
<glyph unicode="&#x20ac;" horiz-adv-x="1308" d="M88 459v80h172q-2 27 -2 82q0 49 6 98h-176v80h188q48 223 200 365.5t353 142.5q163 0 272 -83.5t109 -187.5q0 -54 -31 -92.5t-81 -38.5q-51 0 -81 30.5t-30 76.5q0 37 20 67t54 45q-37 51 -101 74t-135 23q-47 0 -93.5 -12t-97 -42.5t-92 -77t-75 -121.5t-49.5 -169 h424v-80h-434q-5 -78 -5 -98q0 -41 3 -82h436v-80h-426q31 -184 131.5 -284.5t251.5 -100.5q140 0 232 90.5t114 238.5h76q-7 -83 -40 -160t-87.5 -139t-138 -99.5t-181.5 -37.5q-201 0 -333 137.5t-171 354.5h-182z" />
<glyph unicode="&#x2122;" horiz-adv-x="1658" d="M96 1112v215h553v-215h-43q-16 112 -28.5 139t-59.5 27h-100v-502h119v-49h-328v49h119v502h-101q-47 0 -59.5 -27t-28.5 -139h-43zM739 727v49h95v502h-95v49h238l176 -487h2l191 487h225v-49h-92v-502h92v-49h-258v49h76v486h-11l-215 -535h-57l-201 535h-12v-486h82 v-49h-236z" />
<glyph unicode="&#x25fc;" horiz-adv-x="911" d="M0 0v911h911v-911h-911z" />
</font>
</defs>
</svg>
